# This file is brought to you by Roblox Corporation
# Generated by Roblox Studio

mtllib needohblue.mtl

g Needohpink1

v -6.46043 7.27826 -22.307 
v -7.11426 7.27826 -21.9952 
v -0.75993 7.27826 -21.9952 
v -0.75993 0.382364 -21.9952 
v -6.2768 2.38419e-07 -21.2439 
v -7.11426 0.382366 -21.9952 
v -7.40695 1.30547 -22.3323 
v -7.40695 6.35516 -22.3323 
v -6.53661 6.35516 -22.7474 
v -7.11426 7.27826 -21.9952 
v -6.46043 7.27826 -22.307 
v -6.53661 1.30547 -22.7474 
v -7.11426 0.382366 -21.9952 
v -6.46043 0.382364 -22.307 
v -0.75993 7.27826 -21.9952 
v -1.33772 6.35516 -22.7474 
v -1.41377 7.27826 -22.307 
v -0.46738 6.35516 -22.3323 
v -1.33772 1.30547 -22.7474 
v -0.46738 1.30547 -22.3323 
v -0.75993 0.382364 -21.9952 
v -1.41377 0.382364 -22.307 
v -7.38502 7.27826 -21.2422 
v -1.33772 6.35516 -22.7474 
v -6.53661 1.30547 -22.7474 
v -6.53661 6.35516 -22.7474 
v -6.46043 7.27826 -22.307 
v -1.41377 7.27826 -22.307 
v -1.33772 1.30547 -22.7474 
v -1.41377 0.382364 -22.307 
v -6.46043 0.382364 -22.307 
v -6.46043 7.27826 -22.307 
v -6.40779 7.66063 -21.1816 
v -6.2768 7.66063 -21.2439 
v -7.11426 7.27826 -21.9952 
v -1.46654 7.66063 -21.1816 
v -1.41377 7.27826 -22.307 
v -1.59739 7.66063 -21.2439 
v -0.75993 7.27826 -21.9952 
v -6.40779 7.66062 -15.4908 
v -6.46043 7.27826 -14.3652 
v -6.2768 7.66062 -15.4283 
v -7.11426 7.27826 -14.677 
v -1.46654 7.66062 -15.4908 
v -1.59739 7.66062 -15.4283 
v -1.41377 7.27826 -14.3652 
v -0.75993 7.27826 -14.677 
v -7.38502 7.27826 -21.2422 
v -6.40779 7.66063 -21.1816 
v -7.38502 7.27826 -21.2422 
v -6.46191 7.66063 -21.0307 
v -7.11426 7.27826 -21.9952 
v -7.38502 7.27826 -21.2422 
v -6.46191 7.66062 -15.6415 
v -7.38502 7.27826 -15.43 
v -7.38502 7.27826 -15.43 
v -6.40779 7.66062 -15.4908 
v -7.11426 7.27826 -14.677 
v -1.41227 7.66063 -21.0307 
v -0.489167 7.27826 -15.43 
v -0.489167 7.27826 -21.2422 
v -1.41227 7.66062 -15.6415 
v -1.46654 7.66063 -21.1816 
v -0.75993 7.27826 -21.9952 
v -1.46654 7.66062 -15.4908 
v -0.489167 7.27826 -15.43 
v -0.75993 7.27826 -14.677 
v -7.40695 6.35516 -14.3399 
v -6.2768 7.66063 -21.2439 
v -6.46191 7.66063 -21.0307 
v -6.46191 7.66062 -15.6415 
v -6.40779 7.66063 -21.1816 
v -1.41377 7.27826 -22.307 
v -6.46043 7.27826 -22.307 
v -1.59739 7.66063 -21.2439 
v -1.41227 7.66063 -21.0307 
v -1.46654 7.66063 -21.1816 
v -1.41227 7.66062 -15.6415 
v -6.2768 7.66062 -15.4283 
v -6.40779 7.66062 -15.4908 
v -1.59739 7.66062 -15.4283 
v -1.46654 7.66062 -15.4908 
v -6.46043 7.27826 -14.3652 
v -1.41377 7.27826 -14.3652 
v -0.75993 7.27826 -21.9952 
v -0.75993 0.382364 -21.9952 
v -0.75993 7.27826 -14.677 
v -0.75993 0.382363 -14.677 
v -0.46738 1.30547 -22.3323 
v -0.106771 6.35516 -21.3298 
v -0.46738 1.30547 -22.3323 
v -0.46738 6.35516 -22.3323 
v -0.75993 7.27826 -21.9952 
v -0.489167 7.27826 -21.2422 
v -0.106771 1.30547 -21.3298 
v -0.75993 0.382364 -21.9952 
v -0.489167 0.382363 -21.2422 
v -0.489167 7.27826 -15.43 
v -0.489167 0.382363 -15.43 
v -0.75993 7.27826 -14.677 
v -0.106771 6.35516 -15.3424 
v -0.489167 7.27826 -15.43 
v -0.46738 6.35516 -14.3399 
v -0.106771 1.30547 -15.3424 
v -0.46738 1.30547 -14.3399 
v -0.75993 0.382363 -14.677 
v -0.489167 0.382363 -15.43 
v -1.33772 1.30547 -13.9248 
v -0.106771 6.35516 -15.3424 
v -0.106771 1.30547 -21.3298 
v -0.106771 6.35516 -21.3298 
v -0.489167 7.27826 -21.2422 
v -0.489167 7.27826 -15.43 
v -0.106771 1.30547 -15.3424 
v -0.489167 0.382363 -15.43 
v -0.489167 0.382363 -21.2422 
v -6.46043 7.27826 -14.3652 
v -7.11426 7.27826 -14.677 
v -0.75993 7.27826 -14.677 
v -0.75993 0.382363 -14.677 
v -6.46043 0.382363 -14.3652 
v -7.11426 0.382364 -14.677 
v -7.40695 1.30547 -14.3399 
v -7.40695 6.35516 -14.3399 
v -0.46738 1.30547 -14.3399 
v -0.46738 6.35516 -14.3399 
v -1.33772 6.35516 -13.9248 
v -0.75993 7.27826 -14.677 
v -1.41377 7.27826 -14.3652 
v -1.33772 1.30547 -13.9248 
v -0.75993 0.382363 -14.677 
v -1.41377 0.382363 -14.3652 
v -7.11426 7.27826 -14.677 
v -6.53661 6.35516 -13.9248 
v -6.46043 7.27826 -14.3652 
v -7.40695 6.35516 -14.3399 
v -6.53661 1.30547 -13.9248 
v -7.40695 1.30547 -14.3399 
v -7.11426 0.382364 -14.677 
v -6.46043 0.382363 -14.3652 
v -6.53661 6.35516 -13.9248 
v -1.33772 1.30547 -13.9248 
v -1.33772 6.35516 -13.9248 
v -1.41377 7.27826 -14.3652 
v -6.46043 7.27826 -14.3652 
v -6.53661 1.30547 -13.9248 
v -6.46043 0.382363 -14.3652 
v -1.41377 0.382363 -14.3652 
v -0.75993 0.382364 -21.9952 
v -1.46654 2.38419e-07 -21.1816 
v -1.41377 0.382364 -22.307 
v -1.59739 2.38419e-07 -21.2439 
v -6.40779 2.38419e-07 -21.1816 
v -6.46043 0.382364 -22.307 
v -6.2768 2.38419e-07 -21.2439 
v -7.11426 0.382366 -21.9952 
v -1.46654 2.38419e-07 -15.4908 
v -1.41377 0.382363 -14.3652 
v -1.59739 2.38419e-07 -15.4283 
v -0.75993 0.382363 -14.677 
v -6.46043 0.382363 -14.3652 
v -6.40779 2.38419e-07 -15.4908 
v -6.2768 2.38419e-07 -15.4283 
v -7.11426 0.382364 -14.677 
v -6.53661 1.30547 -22.7474 
v -0.489167 0.382363 -21.2422 
v -1.46654 2.38419e-07 -21.1816 
v -0.75993 0.382364 -21.9952 
v -1.41227 2.38419e-07 -21.0307 
v -1.41227 2.38419e-07 -15.6415 
v -0.489167 0.382363 -21.2422 
v -0.489167 0.382363 -15.43 
v -1.46654 2.38419e-07 -15.4908 
v -0.75993 0.382363 -14.677 
v -6.46191 2.38419e-07 -21.0307 
v -7.38502 0.382364 -21.2422 
v -6.40779 2.38419e-07 -21.1816 
v -7.11426 0.382366 -21.9952 
v -7.38502 0.382364 -15.43 
v -7.38502 0.382364 -21.2422 
v -6.46191 2.38419e-07 -15.6415 
v -6.40779 2.38419e-07 -15.4908 
v -7.11426 0.382364 -14.677 
v -1.41227 2.38419e-07 -21.0307 
v -1.59739 2.38419e-07 -21.2439 
v -1.46654 2.38419e-07 -21.1816 
v -1.41227 2.38419e-07 -15.6415 
v -6.46043 0.382364 -22.307 
v -1.41377 0.382364 -22.307 
v -6.2768 2.38419e-07 -21.2439 
v -6.46191 2.38419e-07 -21.0307 
v -6.40779 2.38419e-07 -21.1816 
v -6.46191 2.38419e-07 -15.6415 
v -1.59739 2.38419e-07 -15.4283 
v -1.46654 2.38419e-07 -15.4908 
v -6.2768 2.38419e-07 -15.4283 
v -6.40779 2.38419e-07 -15.4908 
v -1.41377 0.382363 -14.3652 
v -6.46043 0.382363 -14.3652 
v -7.11426 7.27826 -21.9952 
v -7.11426 0.382366 -21.9952 
v -7.11426 7.27826 -14.677 
v -7.11426 0.382364 -14.677 
v -7.40695 1.30547 -22.3323 
v -7.11426 7.27826 -21.9952 
v -7.76742 6.35516 -21.3298 
v -7.38502 7.27826 -21.2422 
v -7.40695 6.35516 -22.3323 
v -7.76742 1.30547 -21.3298 
v -7.40695 1.30547 -22.3323 
v -7.11426 0.382366 -21.9952 
v -7.38502 0.382364 -21.2422 
v -7.38502 7.27826 -15.43 
v -7.38502 0.382364 -15.43 
v -7.40695 1.30547 -14.3399 
v -7.40695 6.35516 -14.3399 
v -7.76742 6.35516 -15.3424 
v -7.11426 7.27826 -14.677 
v -7.38502 7.27826 -15.43 
v -7.76742 1.30547 -15.3424 
v -7.11426 0.382364 -14.677 
v -7.38502 0.382364 -15.43 
v -7.76742 6.35516 -21.3298 
v -7.76742 1.30547 -15.3424 
v -7.76742 6.35516 -15.3424 
v -7.38502 7.27826 -15.43 
v -7.38502 7.27826 -21.2422 
v -7.76742 1.30547 -21.3298 
v -7.38502 0.382364 -21.2422 
v -7.38502 0.382364 -15.43 

vn -0.149606 0.732283 -0.661417 
vn -0.535433 0.708661 -0.464567 
vn 0.535433 0.708661 -0.464567 
vn 0.535433 -0.708661 -0.464567 
vn -0.0393701 -0.984252 -0.188976 
vn -0.535433 -0.708661 -0.464567 
vn -0.740157 -0.212598 -0.637795 
vn -0.740157 0.212598 -0.637795 
vn -0.212598 0.220472 -0.952756 
vn -0.535433 0.708661 -0.464567 
vn -0.149606 0.732283 -0.661417 
vn -0.212598 -0.220472 -0.952756 
vn -0.535433 -0.708661 -0.464567 
vn -0.149606 -0.732283 -0.661417 
vn 0.535433 0.708661 -0.464567 
vn 0.212598 0.220472 -0.952756 
vn 0.149606 0.732283 -0.661417 
vn 0.740157 0.212598 -0.637795 
vn 0.212598 -0.220472 -0.952756 
vn 0.740157 -0.212598 -0.637795 
vn 0.535433 -0.708661 -0.464567 
vn 0.149606 -0.732283 -0.661417 
vn -0.716535 0.692913 -0.125984 
vn 0.212598 0.220472 -0.952756 
vn -0.212598 -0.220472 -0.952756 
vn -0.212598 0.220472 -0.952756 
vn -0.149606 0.732283 -0.661417 
vn 0.149606 0.732283 -0.661417 
vn 0.212598 -0.220472 -0.952756 
vn 0.149606 -0.732283 -0.661417 
vn -0.149606 -0.732283 -0.661417 
vn -0.149606 0.732283 -0.661417 
vn -0.15748 0.976378 -0.133858 
vn -0.0393701 0.984252 -0.188976 
vn -0.535433 0.708661 -0.464567 
vn 0.15748 0.976378 -0.133858 
vn 0.149606 0.732283 -0.661417 
vn 0.0393701 0.984252 -0.188976 
vn 0.535433 0.708661 -0.464567 
vn -0.15748 0.976378 0.133858 
vn -0.149606 0.732283 0.661417 
vn -0.0393701 0.984252 0.188976 
vn -0.535433 0.708661 0.464567 
vn 0.15748 0.976378 0.133858 
vn 0.0393701 0.984252 0.188976 
vn 0.149606 0.732283 0.661417 
vn 0.535433 0.708661 0.464567 
vn -0.716535 0.692913 -0.125984 
vn -0.15748 0.976378 -0.133858 
vn -0.716535 0.692913 -0.125984 
vn -0.212598 0.976378 -0.0314961 
vn -0.535433 0.708661 -0.464567 
vn -0.716535 0.692913 -0.125984 
vn -0.212598 0.976378 0.0314961 
vn -0.716535 0.692913 0.125984 
vn -0.716535 0.692913 0.125984 
vn -0.15748 0.976378 0.133858 
vn -0.535433 0.708661 0.464567 
vn 0.212598 0.976378 -0.0314961 
vn 0.716535 0.692913 0.125984 
vn 0.716535 0.692913 -0.125984 
vn 0.212598 0.976378 0.0314961 
vn 0.15748 0.976378 -0.133858 
vn 0.535433 0.708661 -0.464567 
vn 0.15748 0.976378 0.133858 
vn 0.716535 0.692913 0.125984 
vn 0.535433 0.708661 0.464567 
vn -0.740157 0.212598 0.637795 
vn -0.0393701 0.984252 -0.188976 
vn -0.212598 0.976378 -0.0314961 
vn -0.212598 0.976378 0.0314961 
vn -0.15748 0.976378 -0.133858 
vn 0.149606 0.732283 -0.661417 
vn -0.149606 0.732283 -0.661417 
vn 0.0393701 0.984252 -0.188976 
vn 0.212598 0.976378 -0.0314961 
vn 0.15748 0.976378 -0.133858 
vn 0.212598 0.976378 0.0314961 
vn -0.0393701 0.984252 0.188976 
vn -0.15748 0.976378 0.133858 
vn 0.0393701 0.984252 0.188976 
vn 0.15748 0.976378 0.133858 
vn -0.149606 0.732283 0.661417 
vn 0.149606 0.732283 0.661417 
vn 0.535433 0.708661 -0.464567 
vn 0.535433 -0.708661 -0.464567 
vn 0.535433 0.708661 0.464567 
vn 0.535433 -0.708661 0.464567 
vn 0.740157 -0.212598 -0.637795 
vn 0.968504 0.19685 -0.165354 
vn 0.740157 -0.212598 -0.637795 
vn 0.740157 0.212598 -0.637795 
vn 0.535433 0.708661 -0.464567 
vn 0.716535 0.692913 -0.125984 
vn 0.968504 -0.19685 -0.165354 
vn 0.535433 -0.708661 -0.464567 
vn 0.716535 -0.692913 -0.125984 
vn 0.716535 0.692913 0.125984 
vn 0.716535 -0.692913 0.125984 
vn 0.535433 0.708661 0.464567 
vn 0.968504 0.19685 0.165354 
vn 0.716535 0.692913 0.125984 
vn 0.740157 0.212598 0.637795 
vn 0.968504 -0.19685 0.165354 
vn 0.740157 -0.212598 0.637795 
vn 0.535433 -0.708661 0.464567 
vn 0.716535 -0.692913 0.125984 
vn 0.212598 -0.220472 0.952756 
vn 0.968504 0.19685 0.165354 
vn 0.968504 -0.19685 -0.165354 
vn 0.968504 0.19685 -0.165354 
vn 0.716535 0.692913 -0.125984 
vn 0.716535 0.692913 0.125984 
vn 0.968504 -0.19685 0.165354 
vn 0.716535 -0.692913 0.125984 
vn 0.716535 -0.692913 -0.125984 
vn -0.149606 0.732283 0.661417 
vn -0.535433 0.708661 0.464567 
vn 0.535433 0.708661 0.464567 
vn 0.535433 -0.708661 0.464567 
vn -0.149606 -0.732283 0.661417 
vn -0.535433 -0.708661 0.464567 
vn -0.740157 -0.212598 0.637795 
vn -0.740157 0.212598 0.637795 
vn 0.740157 -0.212598 0.637795 
vn 0.740157 0.212598 0.637795 
vn 0.212598 0.220472 0.952756 
vn 0.535433 0.708661 0.464567 
vn 0.149606 0.732283 0.661417 
vn 0.212598 -0.220472 0.952756 
vn 0.535433 -0.708661 0.464567 
vn 0.149606 -0.732283 0.661417 
vn -0.535433 0.708661 0.464567 
vn -0.212598 0.220472 0.952756 
vn -0.149606 0.732283 0.661417 
vn -0.740157 0.212598 0.637795 
vn -0.212598 -0.220472 0.952756 
vn -0.740157 -0.212598 0.637795 
vn -0.535433 -0.708661 0.464567 
vn -0.149606 -0.732283 0.661417 
vn -0.212598 0.220472 0.952756 
vn 0.212598 -0.220472 0.952756 
vn 0.212598 0.220472 0.952756 
vn 0.149606 0.732283 0.661417 
vn -0.149606 0.732283 0.661417 
vn -0.212598 -0.220472 0.952756 
vn -0.149606 -0.732283 0.661417 
vn 0.149606 -0.732283 0.661417 
vn 0.535433 -0.708661 -0.464567 
vn 0.15748 -0.976378 -0.133858 
vn 0.149606 -0.732283 -0.661417 
vn 0.0393701 -0.984252 -0.188976 
vn -0.15748 -0.976378 -0.133858 
vn -0.149606 -0.732283 -0.661417 
vn -0.0393701 -0.984252 -0.188976 
vn -0.535433 -0.708661 -0.464567 
vn 0.15748 -0.976378 0.133858 
vn 0.149606 -0.732283 0.661417 
vn 0.0393701 -0.984252 0.188976 
vn 0.535433 -0.708661 0.464567 
vn -0.149606 -0.732283 0.661417 
vn -0.15748 -0.976378 0.133858 
vn -0.0393701 -0.984252 0.188976 
vn -0.535433 -0.708661 0.464567 
vn -0.212598 -0.220472 -0.952756 
vn 0.716535 -0.692913 -0.125984 
vn 0.15748 -0.976378 -0.133858 
vn 0.535433 -0.708661 -0.464567 
vn 0.212598 -0.976378 -0.0314961 
vn 0.212598 -0.976378 0.0314961 
vn 0.716535 -0.692913 -0.125984 
vn 0.716535 -0.692913 0.125984 
vn 0.15748 -0.976378 0.133858 
vn 0.535433 -0.708661 0.464567 
vn -0.212598 -0.976378 -0.0314961 
vn -0.716535 -0.692913 -0.125984 
vn -0.15748 -0.976378 -0.133858 
vn -0.535433 -0.708661 -0.464567 
vn -0.716535 -0.692913 0.125984 
vn -0.716535 -0.692913 -0.125984 
vn -0.212598 -0.976378 0.0314961 
vn -0.15748 -0.976378 0.133858 
vn -0.535433 -0.708661 0.464567 
vn 0.212598 -0.976378 -0.0314961 
vn 0.0393701 -0.984252 -0.188976 
vn 0.15748 -0.976378 -0.133858 
vn 0.212598 -0.976378 0.0314961 
vn -0.149606 -0.732283 -0.661417 
vn 0.149606 -0.732283 -0.661417 
vn -0.0393701 -0.984252 -0.188976 
vn -0.212598 -0.976378 -0.0314961 
vn -0.15748 -0.976378 -0.133858 
vn -0.212598 -0.976378 0.0314961 
vn 0.0393701 -0.984252 0.188976 
vn 0.15748 -0.976378 0.133858 
vn -0.0393701 -0.984252 0.188976 
vn -0.15748 -0.976378 0.133858 
vn 0.149606 -0.732283 0.661417 
vn -0.149606 -0.732283 0.661417 
vn -0.535433 0.708661 -0.464567 
vn -0.535433 -0.708661 -0.464567 
vn -0.535433 0.708661 0.464567 
vn -0.535433 -0.708661 0.464567 
vn -0.740157 -0.212598 -0.637795 
vn -0.535433 0.708661 -0.464567 
vn -0.968504 0.19685 -0.165354 
vn -0.716535 0.692913 -0.125984 
vn -0.740157 0.212598 -0.637795 
vn -0.968504 -0.19685 -0.165354 
vn -0.740157 -0.212598 -0.637795 
vn -0.535433 -0.708661 -0.464567 
vn -0.716535 -0.692913 -0.125984 
vn -0.716535 0.692913 0.125984 
vn -0.716535 -0.692913 0.125984 
vn -0.740157 -0.212598 0.637795 
vn -0.740157 0.212598 0.637795 
vn -0.968504 0.19685 0.165354 
vn -0.535433 0.708661 0.464567 
vn -0.716535 0.692913 0.125984 
vn -0.968504 -0.19685 0.165354 
vn -0.535433 -0.708661 0.464567 
vn -0.716535 -0.692913 0.125984 
vn -0.968504 0.19685 -0.165354 
vn -0.968504 -0.19685 0.165354 
vn -0.968504 0.19685 0.165354 
vn -0.716535 0.692913 0.125984 
vn -0.716535 0.692913 -0.125984 
vn -0.968504 -0.19685 -0.165354 
vn -0.716535 -0.692913 -0.125984 
vn -0.716535 -0.692913 0.125984 

vt 8.31542 -16.569 
vt 8.39715 -16.569 
vt 7.60285 -16.569 
vt 7.60285 -17.431 
vt 8.29246 -17.4788 
vt 8.39715 -17.431 
vt 8.43373 -17.3156 
vt 8.43373 -16.6844 
vt 8.32494 -16.6844 
vt 8.39715 -16.569 
vt 8.31542 -16.569 
vt 8.32494 -17.3156 
vt 8.39715 -17.431 
vt 8.31542 -17.431 
vt 7.60285 -16.569 
vt 7.67508 -16.6844 
vt 7.68458 -16.569 
vt 7.56629 -16.6844 
vt 7.67508 -17.3156 
vt 7.56629 -17.3156 
vt 7.60285 -17.431 
vt 7.68458 -17.431 
vt 8.43099 -16.569 
vt 7.67508 -16.6844 
vt 8.32494 -17.3156 
vt 8.32494 -16.6844 
vt 8.31542 -16.569 
vt 7.68458 -16.569 
vt 7.67508 -17.3156 
vt 7.68458 -17.431 
vt 8.31542 -17.431 
vt 7.50363 -17.3154 
vt 7.64432 -17.3088 
vt 7.63652 -17.2925 
vt 7.54261 -17.3971 
vt 7.64432 -16.6912 
vt 7.50363 -16.6846 
vt 7.63652 -16.7075 
vt 7.54261 -16.6029 
vt 8.35566 -17.3088 
vt 8.49637 -17.3154 
vt 8.36348 -17.2925 
vt 8.45739 -17.3971 
vt 8.35566 -16.6912 
vt 8.36348 -16.7075 
vt 8.49637 -16.6846 
vt 8.45739 -16.6029 
vt 7.63674 -17.431 
vt 7.64432 -17.3088 
vt 7.63674 -17.431 
vt 7.66317 -17.3156 
vt 7.54261 -17.3971 
vt 7.63674 -17.431 
vt 8.33683 -17.3156 
vt 8.36326 -17.431 
vt 8.36326 -17.431 
vt 8.35566 -17.3088 
vt 8.45739 -17.3971 
vt 7.66317 -16.6844 
vt 8.36326 -16.569 
vt 7.63674 -16.569 
vt 8.33683 -16.6844 
vt 7.64432 -16.6912 
vt 7.54261 -16.6029 
vt 8.35566 -16.6912 
vt 8.36326 -16.569 
vt 8.45739 -16.6029 
vt 8.49952 -17.4337 
vt 7.63652 -17.2925 
vt 7.66317 -17.3156 
vt 8.33683 -17.3156 
vt 7.64432 -17.3088 
vt 7.50363 -16.6846 
vt 7.50363 -17.3154 
vt 7.63652 -16.7075 
vt 7.66317 -16.6844 
vt 7.64432 -16.6912 
vt 8.33683 -16.6844 
vt 8.36348 -17.2925 
vt 8.35566 -17.3088 
vt 8.36348 -16.7075 
vt 8.35566 -16.6912 
vt 8.49637 -17.3154 
vt 8.49637 -16.6846 
vt 8.45739 -16.569 
vt 8.45739 -17.431 
vt 7.54261 -16.569 
vt 7.54261 -17.431 
vt 8.49952 -17.3156 
vt 8.37421 -16.6844 
vt 8.49952 -17.3156 
vt 8.49952 -16.6844 
vt 8.45739 -16.569 
vt 8.36326 -16.569 
vt 8.37421 -17.3156 
vt 8.45739 -17.431 
vt 8.36326 -17.431 
vt 7.63674 -16.569 
vt 7.63674 -17.431 
vt 7.54261 -16.569 
vt 7.62579 -16.6844 
vt 7.63674 -16.569 
vt 7.50048 -16.6844 
vt 7.62579 -17.3156 
vt 7.50048 -17.3156 
vt 7.54261 -17.431 
vt 7.63674 -17.431 
vt 7.44858 -17.3156 
vt 7.62579 -16.6844 
vt 8.37421 -17.3156 
vt 8.37421 -16.6844 
vt 8.36326 -16.569 
vt 7.63674 -16.569 
vt 7.62579 -17.3156 
vt 7.63674 -17.431 
vt 8.36326 -17.431 
vt 7.68458 -16.569 
vt 7.60285 -16.569 
vt 8.39715 -16.569 
vt 8.39715 -17.431 
vt 7.68458 -17.431 
vt 7.60285 -17.431 
vt 7.56627 -17.3156 
vt 7.56627 -16.6844 
vt 8.43371 -17.3156 
vt 8.43371 -16.6844 
vt 8.32492 -16.6844 
vt 8.39715 -16.569 
vt 8.31542 -16.569 
vt 8.32492 -17.3156 
vt 8.39715 -17.431 
vt 8.31542 -17.431 
vt 7.60285 -16.569 
vt 7.67506 -16.6844 
vt 7.68458 -16.569 
vt 7.56627 -16.6844 
vt 7.67506 -17.3156 
vt 7.56627 -17.3156 
vt 7.60285 -17.431 
vt 7.68458 -17.431 
vt 7.67506 -16.6844 
vt 8.32492 -17.3156 
vt 8.32492 -16.6844 
vt 8.31542 -16.569 
vt 7.68458 -16.569 
vt 7.67506 -17.3156 
vt 7.68458 -17.431 
vt 8.31542 -17.431 
vt 8.45739 -16.6029 
vt 8.35568 -16.6912 
vt 8.49637 -16.6846 
vt 8.36348 -16.7075 
vt 8.35568 -17.3088 
vt 8.49637 -17.3154 
vt 8.36348 -17.2925 
vt 8.45739 -17.3971 
vt 7.64434 -16.6912 
vt 7.50363 -16.6846 
vt 7.63652 -16.7075 
vt 7.54261 -16.6029 
vt 7.50363 -17.3154 
vt 7.64434 -17.3088 
vt 7.63652 -17.2925 
vt 7.54261 -17.3971 
vt 8.55142 -17.3249 
vt 8.36326 -16.569 
vt 8.35568 -16.6912 
vt 8.45739 -16.6029 
vt 8.33683 -16.6844 
vt 7.66317 -16.6844 
vt 8.36326 -16.569 
vt 7.63674 -16.569 
vt 7.64434 -16.6912 
vt 7.54261 -16.6029 
vt 8.33683 -17.3156 
vt 8.36326 -17.431 
vt 8.35568 -17.3088 
vt 8.45739 -17.3971 
vt 7.63674 -17.431 
vt 8.36326 -17.431 
vt 7.66317 -17.3156 
vt 7.64434 -17.3088 
vt 7.54261 -17.3971 
vt 8.33683 -16.6844 
vt 8.36348 -16.7075 
vt 8.35568 -16.6912 
vt 7.66317 -16.6844 
vt 8.49637 -17.3154 
vt 8.49637 -16.6846 
vt 8.36348 -17.2925 
vt 8.33683 -17.3156 
vt 8.35568 -17.3088 
vt 7.66317 -17.3156 
vt 7.63652 -16.7075 
vt 7.64434 -16.6912 
vt 7.63652 -17.2925 
vt 7.64434 -17.3088 
vt 7.50363 -16.6846 
vt 7.50363 -17.3154 
vt 7.54261 -16.569 
vt 7.54261 -17.431 
vt 8.45739 -16.569 
vt 8.45739 -17.431 
vt 7.50048 -17.3156 
vt 7.54261 -16.569 
vt 7.62579 -16.6844 
vt 7.63674 -16.569 
vt 7.50048 -16.6844 
vt 7.62579 -17.3156 
vt 7.50048 -17.3156 
vt 7.54261 -17.431 
vt 7.63674 -17.431 
vt 8.36326 -16.569 
vt 8.36326 -17.431 
vt 8.49952 -17.3156 
vt 8.49952 -16.6844 
vt 8.37421 -16.6844 
vt 8.45739 -16.569 
vt 8.36326 -16.569 
vt 8.37421 -17.3156 
vt 8.45739 -17.431 
vt 8.36326 -17.431 
vt 7.62579 -16.6844 
vt 8.37421 -17.3156 
vt 8.37421 -16.6844 
vt 8.36326 -16.569 
vt 7.63674 -16.569 
vt 7.62579 -17.3156 
vt 7.63674 -17.431 
vt 8.36326 -17.431 

usemtl Needohpink1Mtl

f 7/7/7 8/8/8 9/9/9 
f 10/10/10 9/9/9 8/8/8 
f 11/11/11 9/9/9 10/10/10 
f 9/9/9 12/12/12 7/7/7 
f 12/12/12 13/13/13 7/7/7 
f 13/13/13 12/12/12 14/14/14 
f 15/15/15 16/16/16 17/17/17 
f 16/16/16 15/15/15 18/18/18 
f 18/18/18 19/19/19 16/16/16 
f 19/19/19 18/18/18 20/20/20 
f 19/19/19 20/20/20 21/21/21 
f 19/19/19 21/21/21 22/22/22 
f 24/24/24 25/25/25 26/26/26 
f 27/27/27 24/24/24 26/26/26 
f 27/27/27 28/28/28 24/24/24 
f 25/25/25 24/24/24 29/29/29 
f 25/25/25 29/29/29 30/30/30 
f 25/25/25 30/30/30 31/31/31 
f 32/32/32 33/33/33 34/34/34 
f 33/33/33 32/32/32 35/35/35 
f 36/36/36 37/37/37 38/38/38 
f 37/37/37 36/36/36 39/39/39 
f 40/40/40 41/41/41 42/42/42 
f 41/41/41 40/40/40 43/43/43 
f 44/44/44 45/45/45 46/46/46 
f 47/47/47 44/44/44 46/46/46 
f 49/49/49 50/50/50 51/51/51 
f 50/50/50 49/49/49 52/52/52 
f 53/53/53 54/54/54 51/51/51 
f 54/54/54 53/53/53 55/55/55 
f 54/54/54 56/56/56 57/57/57 
f 57/57/57 56/56/56 58/58/58 
f 59/59/59 60/60/60 61/61/61 
f 60/60/60 59/59/59 62/62/62 
f 61/61/61 63/63/63 59/59/59 
f 64/64/64 63/63/63 61/61/61 
f 65/65/65 66/66/66 62/62/62 
f 66/66/66 65/65/65 67/67/67 
f 69/69/69 70/70/70 71/71/71 
f 70/70/70 69/69/69 72/72/72 
f 69/69/69 73/73/73 74/74/74 
f 69/69/69 75/75/75 73/73/73 
f 69/69/69 71/71/71 75/75/75 
f 75/75/75 71/71/71 76/76/76 
f 75/75/75 76/76/76 77/77/77 
f 76/76/76 71/71/71 78/78/78 
f 71/71/71 79/79/79 78/78/78 
f 79/79/79 71/71/71 80/80/80 
f 78/78/78 79/79/79 81/81/81 
f 78/78/78 81/81/81 82/82/82 
f 83/83/83 81/81/81 79/79/79 
f 83/83/83 84/84/84 81/81/81 
f 90/90/90 91/91/91 92/92/92 
f 93/93/93 90/90/90 92/92/92 
f 94/94/94 90/90/90 93/93/93 
f 91/91/91 90/90/90 95/95/95 
f 95/95/95 96/96/96 91/91/91 
f 96/96/96 95/95/95 97/97/97 
f 100/100/100 101/101/101 102/102/102 
f 101/101/101 100/100/100 103/103/103 
f 104/104/104 101/101/101 103/103/103 
f 103/103/103 105/105/105 104/104/104 
f 104/104/104 105/105/105 106/106/106 
f 104/104/104 106/106/106 107/107/107 
f 109/109/109 110/110/110 111/111/111 
f 112/112/112 109/109/109 111/111/111 
f 112/112/112 113/113/113 109/109/109 
f 110/110/110 109/109/109 114/114/114 
f 110/110/110 114/114/114 115/115/115 
f 110/110/110 115/115/115 116/116/116 
f 125/125/125 126/126/126 127/127/127 
f 128/128/128 127/127/127 126/126/126 
f 129/129/129 127/127/127 128/128/128 
f 127/127/127 130/130/130 125/125/125 
f 130/130/130 131/131/131 125/125/125 
f 131/131/131 130/130/130 132/132/132 
f 133/133/133 134/134/134 135/135/135 
f 134/134/134 133/133/133 136/136/136 
f 137/137/137 134/134/134 136/136/136 
f 136/136/136 138/138/138 137/137/137 
f 137/137/137 138/138/138 139/139/139 
f 137/137/137 139/139/139 140/140/140 
f 141/141/141 142/142/142 143/143/143 
f 144/144/144 141/141/141 143/143/143 
f 144/144/144 145/145/145 141/141/141 
f 142/142/142 141/141/141 146/146/146 
f 142/142/142 146/146/146 147/147/147 
f 142/142/142 147/147/147 148/148/148 
f 149/149/149 150/150/150 151/151/151 
f 150/150/150 152/152/152 151/151/151 
f 153/153/153 154/154/154 155/155/155 
f 154/154/154 153/153/153 156/156/156 
f 157/157/157 158/158/158 159/159/159 
f 158/158/158 157/157/157 160/160/160 
f 161/161/161 162/162/162 163/163/163 
f 162/162/162 161/161/161 164/164/164 
f 166/166/166 167/167/167 168/168/168 
f 167/167/167 166/166/166 169/169/169 
f 170/170/170 169/169/169 171/171/171 
f 171/171/171 172/172/172 170/170/170 
f 172/172/172 173/173/173 170/170/170 
f 174/174/174 173/173/173 172/172/172 
f 175/175/175 176/176/176 177/177/177 
f 177/177/177 176/176/176 178/178/178 
f 175/175/175 179/179/179 180/180/180 
f 179/179/179 175/175/175 181/181/181 
f 182/182/182 179/179/179 181/181/181 
f 179/179/179 182/182/182 183/183/183 
f 184/184/184 185/185/185 186/186/186 
f 185/185/185 184/184/184 187/187/187 
f 188/188/188 189/189/189 185/185/185 
f 188/188/188 185/185/185 190/190/190 
f 185/185/185 187/187/187 190/190/190 
f 190/190/190 187/187/187 191/191/191 
f 190/190/190 191/191/191 192/192/192 
f 191/191/191 187/187/187 193/193/193 
f 187/187/187 194/194/194 193/193/193 
f 194/194/194 187/187/187 195/195/195 
f 193/193/193 194/194/194 196/196/196 
f 193/193/193 196/196/196 197/197/197 
f 196/196/196 194/194/194 198/198/198 
f 196/196/196 198/198/198 199/199/199 
f 205/205/205 206/206/206 207/207/207 
f 206/206/206 205/205/205 208/208/208 
f 209/209/209 206/206/206 208/208/208 
f 208/208/208 210/210/210 209/209/209 
f 209/209/209 210/210/210 211/211/211 
f 209/209/209 211/211/211 212/212/212 
f 215/215/215 216/216/216 217/217/217 
f 218/218/218 217/217/217 216/216/216 
f 219/219/219 217/217/217 218/218/218 
f 217/217/217 220/220/220 215/215/215 
f 220/220/220 221/221/221 215/215/215 
f 221/221/221 220/220/220 222/222/222 
f 223/223/223 224/224/224 225/225/225 
f 226/226/226 223/223/223 225/225/225 
f 226/226/226 227/227/227 223/223/223 
f 224/224/224 223/223/223 228/228/228 
f 224/224/224 228/228/228 229/229/229 
f 224/224/224 229/229/229 230/230/230 

g Needohblue1

v 3.53933 7.27896 -10.2344 
v 2.88543 7.27896 -9.92831 
v 9.24038 7.27896 -9.92831 
v 9.24038 0.382401 -9.92831 
v 3.72297 0 -9.19075 
v 2.88543 0.382402 -9.92831 
v 2.59271 1.3056 -10.2592 
v 2.59271 6.35577 -10.2592 
v 3.46314 6.35577 -10.6668 
v 2.88543 7.27896 -9.92831 
v 3.53933 7.27896 -10.2344 
v 3.46314 1.3056 -10.6668 
v 2.88543 0.382402 -9.92831 
v 3.53933 0.382401 -10.2344 
v 9.24038 7.27896 -9.92831 
v 8.66254 6.35577 -10.6668 
v 8.58648 7.27896 -10.2344 
v 9.53296 6.35577 -10.2592 
v 8.66254 1.30559 -10.6668 
v 9.53296 1.30559 -10.2592 
v 9.24038 0.382401 -9.92831 
v 8.58648 0.382401 -10.2344 
v 2.61464 7.27896 -9.18907 
v 8.66254 6.35577 -10.6668 
v 3.46314 1.3056 -10.6668 
v 3.46314 6.35577 -10.6668 
v 3.53933 7.27896 -10.2344 
v 8.58648 7.27896 -10.2344 
v 8.66254 1.30559 -10.6668 
v 8.58648 0.382401 -10.2344 
v 3.53933 0.382401 -10.2344 
v 3.53933 7.27896 -10.2344 
v 3.59197 7.66136 -9.12955 
v 3.72297 7.66136 -9.19075 
v 2.88543 7.27896 -9.92831 
v 8.53371 7.66136 -9.12955 
v 8.58648 7.27896 -10.2344 
v 8.40284 7.66136 -9.19075 
v 9.24038 7.27896 -9.92831 
v 3.59197 7.66135 -3.5428 
v 3.53933 7.27896 -2.43775 
v 3.72297 7.66135 -3.48145 
v 2.88543 7.27896 -2.74389 
v 8.53371 7.66135 -3.5428 
v 8.40284 7.66135 -3.48145 
v 8.58648 7.27896 -2.43775 
v 9.24038 7.27896 -2.74389 
v 2.61464 7.27896 -9.18907 
v 3.59197 7.66136 -9.12955 
v 2.61464 7.27896 -9.18907 
v 3.53784 7.66136 -8.98146 
v 2.88543 7.27896 -9.92831 
v 2.61464 7.27896 -9.18907 
v 3.53784 7.66135 -3.69074 
v 2.61464 7.27896 -3.48313 
v 2.61464 7.27896 -3.48313 
v 3.59197 7.66135 -3.5428 
v 2.88543 7.27896 -2.74389 
v 8.58797 7.66136 -8.98146 
v 9.51117 7.27896 -3.48313 
v 9.51117 7.27896 -9.18907 
v 8.58797 7.66135 -3.69074 
v 8.53371 7.66136 -9.12955 
v 9.24038 7.27896 -9.92831 
v 8.53371 7.66135 -3.5428 
v 9.51117 7.27896 -3.48313 
v 9.24038 7.27896 -2.74389 
v 2.59271 6.35577 -2.41297 
v 3.72297 7.66136 -9.19075 
v 3.53784 7.66136 -8.98146 
v 3.53784 7.66135 -3.69074 
v 3.59197 7.66136 -9.12955 
v 8.58648 7.27896 -10.2344 
v 3.53933 7.27896 -10.2344 
v 8.40284 7.66136 -9.19075 
v 8.58797 7.66136 -8.98146 
v 8.53371 7.66136 -9.12955 
v 8.58797 7.66135 -3.69074 
v 3.72297 7.66135 -3.48145 
v 3.59197 7.66135 -3.5428 
v 8.40284 7.66135 -3.48145 
v 8.53371 7.66135 -3.5428 
v 3.53933 7.27896 -2.43775 
v 8.58648 7.27896 -2.43775 
v 9.24038 7.27896 -9.92831 
v 9.24038 0.382401 -9.92831 
v 9.24038 7.27896 -2.74389 
v 9.24038 0.382399 -2.74389 
v 9.53296 1.30559 -10.2592 
v 9.8936 6.35577 -9.27505 
v 9.53296 1.30559 -10.2592 
v 9.53296 6.35577 -10.2592 
v 9.24038 7.27896 -9.92831 
v 9.51117 7.27896 -9.18907 
v 9.8936 1.30559 -9.27505 
v 9.24038 0.382401 -9.92831 
v 9.51117 0.382399 -9.18907 
v 9.51117 7.27896 -3.48313 
v 9.51117 0.382399 -3.48313 
v 9.24038 7.27896 -2.74389 
v 9.8936 6.35577 -3.39715 
v 9.51117 7.27896 -3.48313 
v 9.53296 6.35577 -2.41297 
v 9.8936 1.30559 -3.39715 
v 9.53296 1.30559 -2.41297 
v 9.24038 0.382399 -2.74389 
v 9.51117 0.382399 -3.48313 
v 8.66254 1.30559 -2.0054 
v 9.8936 6.35577 -3.39715 
v 9.8936 1.30559 -9.27505 
v 9.8936 6.35577 -9.27505 
v 9.51117 7.27896 -9.18907 
v 9.51117 7.27896 -3.48313 
v 9.8936 1.30559 -3.39715 
v 9.51117 0.382399 -3.48313 
v 9.51117 0.382399 -9.18907 
v 3.53933 7.27896 -2.43775 
v 2.88543 7.27896 -2.74389 
v 9.24038 7.27896 -2.74389 
v 9.24038 0.382399 -2.74389 
v 3.53933 0.382399 -2.43775 
v 2.88543 0.382401 -2.74389 
v 2.59271 1.30559 -2.41297 
v 2.59271 6.35577 -2.41297 
v 9.53296 1.30559 -2.41297 
v 9.53296 6.35577 -2.41297 
v 8.66254 6.35577 -2.0054 
v 9.24038 7.27896 -2.74389 
v 8.58648 7.27896 -2.43775 
v 8.66254 1.30559 -2.0054 
v 9.24038 0.382399 -2.74389 
v 8.58648 0.382399 -2.43775 
v 2.88543 7.27896 -2.74389 
v 3.46314 6.35577 -2.0054 
v 3.53933 7.27896 -2.43775 
v 2.59271 6.35577 -2.41297 
v 3.46314 1.30559 -2.0054 
v 2.59271 1.30559 -2.41297 
v 2.88543 0.382401 -2.74389 
v 3.53933 0.382399 -2.43775 
v 3.46314 6.35577 -2.0054 
v 8.66254 1.30559 -2.0054 
v 8.66254 6.35577 -2.0054 
v 8.58648 7.27896 -2.43775 
v 3.53933 7.27896 -2.43775 
v 3.46314 1.30559 -2.0054 
v 3.53933 0.382399 -2.43775 
v 8.58648 0.382399 -2.43775 
v 9.24038 0.382401 -9.92831 
v 8.53371 0 -9.12955 
v 8.58648 0.382401 -10.2344 
v 8.40284 0 -9.19075 
v 3.59197 0 -9.12955 
v 3.53933 0.382401 -10.2344 
v 3.72297 0 -9.19075 
v 2.88543 0.382402 -9.92831 
v 8.53371 0 -3.5428 
v 8.58648 0.382399 -2.43775 
v 8.40284 0 -3.48145 
v 9.24038 0.382399 -2.74389 
v 3.53933 0.382399 -2.43775 
v 3.59197 0 -3.5428 
v 3.72297 0 -3.48145 
v 2.88543 0.382401 -2.74389 
v 3.46314 1.3056 -10.6668 
v 9.51117 0.382399 -9.18907 
v 8.53371 0 -9.12955 
v 9.24038 0.382401 -9.92831 
v 8.58797 0 -8.98146 
v 8.58797 0 -3.69074 
v 9.51117 0.382399 -9.18907 
v 9.51117 0.382399 -3.48313 
v 8.53371 0 -3.5428 
v 9.24038 0.382399 -2.74389 
v 3.53784 0 -8.98146 
v 2.61464 0.382401 -9.18907 
v 3.59197 0 -9.12955 
v 2.88543 0.382402 -9.92831 
v 2.61464 0.382401 -3.48313 
v 2.61464 0.382401 -9.18907 
v 3.53784 0 -3.69074 
v 3.59197 0 -3.5428 
v 2.88543 0.382401 -2.74389 
v 8.58797 0 -8.98146 
v 8.40284 0 -9.19075 
v 8.53371 0 -9.12955 
v 8.58797 0 -3.69074 
v 3.53933 0.382401 -10.2344 
v 8.58648 0.382401 -10.2344 
v 3.72297 0 -9.19075 
v 3.53784 0 -8.98146 
v 3.59197 0 -9.12955 
v 3.53784 0 -3.69074 
v 8.40284 0 -3.48145 
v 8.53371 0 -3.5428 
v 3.72297 0 -3.48145 
v 3.59197 0 -3.5428 
v 8.58648 0.382399 -2.43775 
v 3.53933 0.382399 -2.43775 
v 2.88543 7.27896 -9.92831 
v 2.88543 0.382402 -9.92831 
v 2.88543 7.27896 -2.74389 
v 2.88543 0.382401 -2.74389 
v 2.59271 1.3056 -10.2592 
v 2.88543 7.27896 -9.92831 
v 2.2322 6.35577 -9.27505 
v 2.61464 7.27896 -9.18907 
v 2.59271 6.35577 -10.2592 
v 2.2322 1.3056 -9.27505 
v 2.59271 1.3056 -10.2592 
v 2.88543 0.382402 -9.92831 
v 2.61464 0.382401 -9.18907 
v 2.61464 7.27896 -3.48313 
v 2.61464 0.382401 -3.48313 
v 2.59271 1.30559 -2.41297 
v 2.59271 6.35577 -2.41297 
v 2.2322 6.35577 -3.39715 
v 2.88543 7.27896 -2.74389 
v 2.61464 7.27896 -3.48313 
v 2.2322 1.30559 -3.39715 
v 2.88543 0.382401 -2.74389 
v 2.61464 0.382401 -3.48313 
v 2.2322 6.35577 -9.27505 
v 2.2322 1.30559 -3.39715 
v 2.2322 6.35577 -3.39715 
v 2.61464 7.27896 -3.48313 
v 2.61464 7.27896 -9.18907 
v 2.2322 1.3056 -9.27505 
v 2.61464 0.382401 -9.18907 
v 2.61464 0.382401 -3.48313 

vn -0.149606 0.732283 -0.669291 
vn -0.535433 0.700787 -0.472441 
vn 0.535433 0.700787 -0.472441 
vn 0.535433 -0.700787 -0.472441 
vn -0.0393701 -0.984252 -0.188976 
vn -0.535433 -0.700787 -0.472441 
vn -0.732283 -0.204724 -0.645669 
vn -0.732283 0.204724 -0.645669 
vn -0.212598 0.220472 -0.952756 
vn -0.535433 0.700787 -0.472441 
vn -0.149606 0.732283 -0.669291 
vn -0.212598 -0.220472 -0.952756 
vn -0.535433 -0.700787 -0.472441 
vn -0.149606 -0.732283 -0.669291 
vn 0.535433 0.700787 -0.472441 
vn 0.212598 0.220472 -0.952756 
vn 0.149606 0.732283 -0.669291 
vn 0.732283 0.204724 -0.645669 
vn 0.212598 -0.220472 -0.952756 
vn 0.732283 -0.204724 -0.645669 
vn 0.535433 -0.700787 -0.472441 
vn 0.149606 -0.732283 -0.669291 
vn -0.716535 0.692913 -0.125984 
vn 0.212598 0.220472 -0.952756 
vn -0.212598 -0.220472 -0.952756 
vn -0.212598 0.220472 -0.952756 
vn -0.149606 0.732283 -0.669291 
vn 0.149606 0.732283 -0.669291 
vn 0.212598 -0.220472 -0.952756 
vn 0.149606 -0.732283 -0.669291 
vn -0.149606 -0.732283 -0.669291 
vn -0.149606 0.732283 -0.669291 
vn -0.15748 0.976378 -0.141732 
vn -0.0393701 0.984252 -0.188976 
vn -0.535433 0.700787 -0.472441 
vn 0.15748 0.976378 -0.141732 
vn 0.149606 0.732283 -0.669291 
vn 0.0393701 0.984252 -0.188976 
vn 0.535433 0.700787 -0.472441 
vn -0.15748 0.976378 0.141732 
vn -0.149606 0.732283 0.669291 
vn -0.0393701 0.984252 0.188976 
vn -0.535433 0.700787 0.472441 
vn 0.15748 0.976378 0.141732 
vn 0.0393701 0.984252 0.188976 
vn 0.149606 0.732283 0.669291 
vn 0.535433 0.700787 0.472441 
vn -0.716535 0.692913 -0.125984 
vn -0.15748 0.976378 -0.141732 
vn -0.716535 0.692913 -0.125984 
vn -0.212598 0.976378 -0.0314961 
vn -0.535433 0.700787 -0.472441 
vn -0.716535 0.692913 -0.125984 
vn -0.212598 0.976378 0.0314961 
vn -0.716535 0.692913 0.125984 
vn -0.716535 0.692913 0.125984 
vn -0.15748 0.976378 0.141732 
vn -0.535433 0.700787 0.472441 
vn 0.212598 0.976378 -0.0314961 
vn 0.716535 0.692913 0.125984 
vn 0.716535 0.692913 -0.125984 
vn 0.212598 0.976378 0.0314961 
vn 0.15748 0.976378 -0.141732 
vn 0.535433 0.700787 -0.472441 
vn 0.15748 0.976378 0.141732 
vn 0.716535 0.692913 0.125984 
vn 0.535433 0.700787 0.472441 
vn -0.732283 0.204724 0.645669 
vn -0.0393701 0.984252 -0.188976 
vn -0.212598 0.976378 -0.0314961 
vn -0.212598 0.976378 0.0314961 
vn -0.15748 0.976378 -0.141732 
vn 0.149606 0.732283 -0.669291 
vn -0.149606 0.732283 -0.669291 
vn 0.0393701 0.984252 -0.188976 
vn 0.212598 0.976378 -0.0314961 
vn 0.15748 0.976378 -0.141732 
vn 0.212598 0.976378 0.0314961 
vn -0.0393701 0.984252 0.188976 
vn -0.15748 0.976378 0.141732 
vn 0.0393701 0.984252 0.188976 
vn 0.15748 0.976378 0.141732 
vn -0.149606 0.732283 0.669291 
vn 0.149606 0.732283 0.669291 
vn 0.535433 0.700787 -0.472441 
vn 0.535433 -0.700787 -0.472441 
vn 0.535433 0.700787 0.472441 
vn 0.535433 -0.700787 0.472441 
vn 0.732283 -0.204724 -0.645669 
vn 0.968504 0.19685 -0.165354 
vn 0.732283 -0.204724 -0.645669 
vn 0.732283 0.204724 -0.645669 
vn 0.535433 0.700787 -0.472441 
vn 0.716535 0.692913 -0.125984 
vn 0.968504 -0.19685 -0.165354 
vn 0.535433 -0.700787 -0.472441 
vn 0.716535 -0.692913 -0.125984 
vn 0.716535 0.692913 0.125984 
vn 0.716535 -0.692913 0.125984 
vn 0.535433 0.700787 0.472441 
vn 0.968504 0.19685 0.165354 
vn 0.716535 0.692913 0.125984 
vn 0.732283 0.204724 0.645669 
vn 0.968504 -0.19685 0.165354 
vn 0.732283 -0.204724 0.645669 
vn 0.535433 -0.700787 0.472441 
vn 0.716535 -0.692913 0.125984 
vn 0.212598 -0.220472 0.952756 
vn 0.968504 0.19685 0.165354 
vn 0.968504 -0.19685 -0.165354 
vn 0.968504 0.19685 -0.165354 
vn 0.716535 0.692913 -0.125984 
vn 0.716535 0.692913 0.125984 
vn 0.968504 -0.19685 0.165354 
vn 0.716535 -0.692913 0.125984 
vn 0.716535 -0.692913 -0.125984 
vn -0.149606 0.732283 0.669291 
vn -0.535433 0.700787 0.472441 
vn 0.535433 0.700787 0.472441 
vn 0.535433 -0.700787 0.472441 
vn -0.149606 -0.732283 0.669291 
vn -0.535433 -0.700787 0.472441 
vn -0.732283 -0.204724 0.645669 
vn -0.732283 0.204724 0.645669 
vn 0.732283 -0.204724 0.645669 
vn 0.732283 0.204724 0.645669 
vn 0.212598 0.220472 0.952756 
vn 0.535433 0.700787 0.472441 
vn 0.149606 0.732283 0.669291 
vn 0.212598 -0.220472 0.952756 
vn 0.535433 -0.700787 0.472441 
vn 0.149606 -0.732283 0.669291 
vn -0.535433 0.700787 0.472441 
vn -0.212598 0.220472 0.952756 
vn -0.149606 0.732283 0.669291 
vn -0.732283 0.204724 0.645669 
vn -0.212598 -0.220472 0.952756 
vn -0.732283 -0.204724 0.645669 
vn -0.535433 -0.700787 0.472441 
vn -0.149606 -0.732283 0.669291 
vn -0.212598 0.220472 0.952756 
vn 0.212598 -0.220472 0.952756 
vn 0.212598 0.220472 0.952756 
vn 0.149606 0.732283 0.669291 
vn -0.149606 0.732283 0.669291 
vn -0.212598 -0.220472 0.952756 
vn -0.149606 -0.732283 0.669291 
vn 0.149606 -0.732283 0.669291 
vn 0.535433 -0.700787 -0.472441 
vn 0.15748 -0.976378 -0.141732 
vn 0.149606 -0.732283 -0.669291 
vn 0.0393701 -0.984252 -0.188976 
vn -0.15748 -0.976378 -0.141732 
vn -0.149606 -0.732283 -0.669291 
vn -0.0393701 -0.984252 -0.188976 
vn -0.535433 -0.700787 -0.472441 
vn 0.15748 -0.976378 0.141732 
vn 0.149606 -0.732283 0.669291 
vn 0.0393701 -0.984252 0.188976 
vn 0.535433 -0.700787 0.472441 
vn -0.149606 -0.732283 0.669291 
vn -0.15748 -0.976378 0.141732 
vn -0.0393701 -0.984252 0.188976 
vn -0.535433 -0.700787 0.472441 
vn -0.212598 -0.220472 -0.952756 
vn 0.716535 -0.692913 -0.125984 
vn 0.15748 -0.976378 -0.141732 
vn 0.535433 -0.700787 -0.472441 
vn 0.212598 -0.976378 -0.0314961 
vn 0.212598 -0.976378 0.0314961 
vn 0.716535 -0.692913 -0.125984 
vn 0.716535 -0.692913 0.125984 
vn 0.15748 -0.976378 0.141732 
vn 0.535433 -0.700787 0.472441 
vn -0.212598 -0.976378 -0.0314961 
vn -0.716535 -0.692913 -0.125984 
vn -0.15748 -0.976378 -0.141732 
vn -0.535433 -0.700787 -0.472441 
vn -0.716535 -0.692913 0.125984 
vn -0.716535 -0.692913 -0.125984 
vn -0.212598 -0.976378 0.0314961 
vn -0.15748 -0.976378 0.141732 
vn -0.535433 -0.700787 0.472441 
vn 0.212598 -0.976378 -0.0314961 
vn 0.0393701 -0.984252 -0.188976 
vn 0.15748 -0.976378 -0.141732 
vn 0.212598 -0.976378 0.0314961 
vn -0.149606 -0.732283 -0.669291 
vn 0.149606 -0.732283 -0.669291 
vn -0.0393701 -0.984252 -0.188976 
vn -0.212598 -0.976378 -0.0314961 
vn -0.15748 -0.976378 -0.141732 
vn -0.212598 -0.976378 0.0314961 
vn 0.0393701 -0.984252 0.188976 
vn 0.15748 -0.976378 0.141732 
vn -0.0393701 -0.984252 0.188976 
vn -0.15748 -0.976378 0.141732 
vn 0.149606 -0.732283 0.669291 
vn -0.149606 -0.732283 0.669291 
vn -0.535433 0.700787 -0.472441 
vn -0.535433 -0.700787 -0.472441 
vn -0.535433 0.700787 0.472441 
vn -0.535433 -0.700787 0.472441 
vn -0.732283 -0.204724 -0.645669 
vn -0.535433 0.700787 -0.472441 
vn -0.968504 0.19685 -0.165354 
vn -0.716535 0.692913 -0.125984 
vn -0.732283 0.204724 -0.645669 
vn -0.968504 -0.19685 -0.165354 
vn -0.732283 -0.204724 -0.645669 
vn -0.535433 -0.700787 -0.472441 
vn -0.716535 -0.692913 -0.125984 
vn -0.716535 0.692913 0.125984 
vn -0.716535 -0.692913 0.125984 
vn -0.732283 -0.204724 0.645669 
vn -0.732283 0.204724 0.645669 
vn -0.968504 0.19685 0.165354 
vn -0.535433 0.700787 0.472441 
vn -0.716535 0.692913 0.125984 
vn -0.968504 -0.19685 0.165354 
vn -0.535433 -0.700787 0.472441 
vn -0.716535 -0.692913 0.125984 
vn -0.968504 0.19685 -0.165354 
vn -0.968504 -0.19685 0.165354 
vn -0.968504 0.19685 0.165354 
vn -0.716535 0.692913 0.125984 
vn -0.716535 0.692913 -0.125984 
vn -0.968504 -0.19685 -0.165354 
vn -0.716535 -0.692913 -0.125984 
vn -0.716535 -0.692913 0.125984 

vt 32.3154 -38.569 
vt 32.3972 -38.569 
vt 31.6028 -38.569 
vt 31.6028 -39.431 
vt 32.2925 -39.4788 
vt 32.3972 -39.431 
vt 32.4338 -39.3156 
vt 32.4338 -38.6844 
vt 32.325 -38.6844 
vt 32.3972 -38.569 
vt 32.3154 -38.569 
vt 32.325 -39.3156 
vt 32.3972 -39.431 
vt 32.3154 -39.431 
vt 31.6028 -38.569 
vt 31.675 -38.6844 
vt 31.6846 -38.569 
vt 31.5662 -38.6844 
vt 31.675 -39.3156 
vt 31.5662 -39.3156 
vt 31.6028 -39.431 
vt 31.6846 -39.431 
vt 32.431 -38.569 
vt 31.675 -38.6844 
vt 32.325 -39.3156 
vt 32.325 -38.6844 
vt 32.3154 -38.569 
vt 31.6846 -38.569 
vt 31.675 -39.3156 
vt 31.6846 -39.431 
vt 32.3154 -39.431 
vt 31.5127 -39.3154 
vt 31.6508 -39.3089 
vt 31.6432 -39.2925 
vt 31.551 -39.3972 
vt 31.6508 -38.6912 
vt 31.5127 -38.6846 
vt 31.6432 -38.7075 
vt 31.551 -38.6028 
vt 32.3492 -39.3089 
vt 32.4873 -39.3154 
vt 32.3568 -39.2925 
vt 32.449 -39.3972 
vt 32.3492 -38.6912 
vt 32.3568 -38.7075 
vt 32.4873 -38.6846 
vt 32.449 -38.6028 
vt 31.6434 -39.431 
vt 31.6508 -39.3089 
vt 31.6434 -39.431 
vt 31.6693 -39.3156 
vt 31.551 -39.3972 
vt 31.6434 -39.431 
vt 32.3307 -39.3156 
vt 32.3566 -39.431 
vt 32.3566 -39.431 
vt 32.3492 -39.3089 
vt 32.449 -39.3972 
vt 31.6693 -38.6844 
vt 32.3566 -38.569 
vt 31.6434 -38.569 
vt 32.3307 -38.6844 
vt 31.6508 -38.6912 
vt 31.551 -38.6028 
vt 32.3492 -38.6912 
vt 32.3566 -38.569 
vt 32.449 -38.6028 
vt 32.4904 -39.4338 
vt 31.6432 -39.2925 
vt 31.6693 -39.3156 
vt 32.3307 -39.3156 
vt 31.6508 -39.3089 
vt 31.5127 -38.6846 
vt 31.5127 -39.3154 
vt 31.6432 -38.7075 
vt 31.6693 -38.6844 
vt 31.6508 -38.6912 
vt 32.3307 -38.6844 
vt 32.3568 -39.2925 
vt 32.3492 -39.3089 
vt 32.3568 -38.7075 
vt 32.3492 -38.6912 
vt 32.4873 -39.3154 
vt 32.4873 -38.6846 
vt 32.449 -38.569 
vt 32.449 -39.431 
vt 31.551 -38.569 
vt 31.551 -39.431 
vt 32.4904 -39.3156 
vt 32.3674 -38.6844 
vt 32.4904 -39.3156 
vt 32.4904 -38.6844 
vt 32.449 -38.569 
vt 32.3566 -38.569 
vt 32.3674 -39.3156 
vt 32.449 -39.431 
vt 32.3566 -39.431 
vt 31.6434 -38.569 
vt 31.6434 -39.431 
vt 31.551 -38.569 
vt 31.6326 -38.6844 
vt 31.6434 -38.569 
vt 31.5096 -38.6844 
vt 31.6326 -39.3156 
vt 31.5096 -39.3156 
vt 31.551 -39.431 
vt 31.6434 -39.431 
vt 31.4587 -39.3156 
vt 31.6326 -38.6844 
vt 32.3674 -39.3156 
vt 32.3674 -38.6844 
vt 32.3566 -38.569 
vt 31.6434 -38.569 
vt 31.6326 -39.3156 
vt 31.6434 -39.431 
vt 32.3566 -39.431 
vt 31.6846 -38.569 
vt 31.6028 -38.569 
vt 32.3972 -38.569 
vt 32.3972 -39.431 
vt 31.6846 -39.431 
vt 31.6028 -39.431 
vt 31.5662 -39.3156 
vt 31.5662 -38.6844 
vt 32.4338 -39.3156 
vt 32.4338 -38.6844 
vt 32.325 -38.6844 
vt 32.3972 -38.569 
vt 32.3154 -38.569 
vt 32.325 -39.3156 
vt 32.3972 -39.431 
vt 32.3154 -39.431 
vt 31.6028 -38.569 
vt 31.675 -38.6844 
vt 31.6846 -38.569 
vt 31.5662 -38.6844 
vt 31.675 -39.3156 
vt 31.5662 -39.3156 
vt 31.6028 -39.431 
vt 31.6846 -39.431 
vt 31.675 -38.6844 
vt 32.325 -39.3156 
vt 32.325 -38.6844 
vt 32.3154 -38.569 
vt 31.6846 -38.569 
vt 31.675 -39.3156 
vt 31.6846 -39.431 
vt 32.3154 -39.431 
vt 32.449 -38.6028 
vt 32.3492 -38.6912 
vt 32.4873 -38.6846 
vt 32.3568 -38.7075 
vt 32.3492 -39.3089 
vt 32.4873 -39.3154 
vt 32.3568 -39.2925 
vt 32.449 -39.3972 
vt 31.6508 -38.6912 
vt 31.5127 -38.6846 
vt 31.6432 -38.7075 
vt 31.551 -38.6028 
vt 31.5127 -39.3154 
vt 31.6508 -39.3089 
vt 31.6432 -39.2925 
vt 31.551 -39.3972 
vt 32.5413 -39.325 
vt 32.3566 -38.569 
vt 32.3492 -38.6912 
vt 32.449 -38.6028 
vt 32.3307 -38.6844 
vt 31.6693 -38.6844 
vt 32.3566 -38.569 
vt 31.6434 -38.569 
vt 31.6508 -38.6912 
vt 31.551 -38.6028 
vt 32.3307 -39.3156 
vt 32.3566 -39.431 
vt 32.3492 -39.3089 
vt 32.449 -39.3972 
vt 31.6434 -39.431 
vt 32.3566 -39.431 
vt 31.6693 -39.3156 
vt 31.6508 -39.3089 
vt 31.551 -39.3972 
vt 32.3307 -38.6844 
vt 32.3568 -38.7075 
vt 32.3492 -38.6912 
vt 31.6693 -38.6844 
vt 32.4873 -39.3154 
vt 32.4873 -38.6846 
vt 32.3568 -39.2925 
vt 32.3307 -39.3156 
vt 32.3492 -39.3089 
vt 31.6693 -39.3156 
vt 31.6432 -38.7075 
vt 31.6508 -38.6912 
vt 31.6432 -39.2925 
vt 31.6508 -39.3089 
vt 31.5127 -38.6846 
vt 31.5127 -39.3154 
vt 31.551 -38.569 
vt 31.551 -39.431 
vt 32.449 -38.569 
vt 32.449 -39.431 
vt 31.5096 -39.3156 
vt 31.551 -38.569 
vt 31.6326 -38.6844 
vt 31.6434 -38.569 
vt 31.5096 -38.6844 
vt 31.6326 -39.3156 
vt 31.5096 -39.3156 
vt 31.551 -39.431 
vt 31.6434 -39.431 
vt 32.3566 -38.569 
vt 32.3566 -39.431 
vt 32.4904 -39.3156 
vt 32.4904 -38.6844 
vt 32.3674 -38.6844 
vt 32.449 -38.569 
vt 32.3566 -38.569 
vt 32.3674 -39.3156 
vt 32.449 -39.431 
vt 32.3566 -39.431 
vt 31.6326 -38.6844 
vt 32.3674 -39.3156 
vt 32.3674 -38.6844 
vt 32.3566 -38.569 
vt 31.6434 -38.569 
vt 31.6326 -39.3156 
vt 31.6434 -39.431 
vt 32.3566 -39.431 

usemtl Needohblue1Mtl

f 237/237/237 238/238/238 239/239/239 
f 240/240/240 239/239/239 238/238/238 
f 241/241/241 239/239/239 240/240/240 
f 239/239/239 242/242/242 237/237/237 
f 242/242/242 243/243/243 237/237/237 
f 243/243/243 242/242/242 244/244/244 
f 245/245/245 246/246/246 247/247/247 
f 246/246/246 245/245/245 248/248/248 
f 248/248/248 249/249/249 246/246/246 
f 249/249/249 248/248/248 250/250/250 
f 249/249/249 250/250/250 251/251/251 
f 249/249/249 251/251/251 252/252/252 
f 254/254/254 255/255/255 256/256/256 
f 257/257/257 254/254/254 256/256/256 
f 257/257/257 258/258/258 254/254/254 
f 255/255/255 254/254/254 259/259/259 
f 255/255/255 259/259/259 260/260/260 
f 255/255/255 260/260/260 261/261/261 
f 262/262/262 263/263/263 264/264/264 
f 263/263/263 262/262/262 265/265/265 
f 266/266/266 267/267/267 268/268/268 
f 267/267/267 266/266/266 269/269/269 
f 270/270/270 271/271/271 272/272/272 
f 271/271/271 270/270/270 273/273/273 
f 274/274/274 275/275/275 276/276/276 
f 277/277/277 274/274/274 276/276/276 
f 279/279/279 280/280/280 281/281/281 
f 280/280/280 279/279/279 282/282/282 
f 283/283/283 284/284/284 281/281/281 
f 284/284/284 283/283/283 285/285/285 
f 284/284/284 286/286/286 287/287/287 
f 287/287/287 286/286/286 288/288/288 
f 289/289/289 290/290/290 291/291/291 
f 290/290/290 289/289/289 292/292/292 
f 291/291/291 293/293/293 289/289/289 
f 294/294/294 293/293/293 291/291/291 
f 295/295/295 296/296/296 292/292/292 
f 296/296/296 295/295/295 297/297/297 
f 299/299/299 300/300/300 301/301/301 
f 300/300/300 299/299/299 302/302/302 
f 299/299/299 303/303/303 304/304/304 
f 299/299/299 305/305/305 303/303/303 
f 299/299/299 301/301/301 305/305/305 
f 305/305/305 301/301/301 306/306/306 
f 305/305/305 306/306/306 307/307/307 
f 306/306/306 301/301/301 308/308/308 
f 301/301/301 309/309/309 308/308/308 
f 309/309/309 301/301/301 310/310/310 
f 308/308/308 309/309/309 311/311/311 
f 308/308/308 311/311/311 312/312/312 
f 313/313/313 311/311/311 309/309/309 
f 313/313/313 314/314/314 311/311/311 
f 320/320/320 321/321/321 322/322/322 
f 323/323/323 320/320/320 322/322/322 
f 324/324/324 320/320/320 323/323/323 
f 321/321/321 320/320/320 325/325/325 
f 325/325/325 326/326/326 321/321/321 
f 326/326/326 325/325/325 327/327/327 
f 330/330/330 331/331/331 332/332/332 
f 331/331/331 330/330/330 333/333/333 
f 334/334/334 331/331/331 333/333/333 
f 333/333/333 335/335/335 334/334/334 
f 334/334/334 335/335/335 336/336/336 
f 334/334/334 336/336/336 337/337/337 
f 339/339/339 340/340/340 341/341/341 
f 342/342/342 339/339/339 341/341/341 
f 342/342/342 343/343/343 339/339/339 
f 340/340/340 339/339/339 344/344/344 
f 340/340/340 344/344/344 345/345/345 
f 340/340/340 345/345/345 346/346/346 
f 355/355/355 356/356/356 357/357/357 
f 358/358/358 357/357/357 356/356/356 
f 359/359/359 357/357/357 358/358/358 
f 357/357/357 360/360/360 355/355/355 
f 360/360/360 361/361/361 355/355/355 
f 361/361/361 360/360/360 362/362/362 
f 363/363/363 364/364/364 365/365/365 
f 364/364/364 363/363/363 366/366/366 
f 367/367/367 364/364/364 366/366/366 
f 366/366/366 368/368/368 367/367/367 
f 367/367/367 368/368/368 369/369/369 
f 367/367/367 369/369/369 370/370/370 
f 371/371/371 372/372/372 373/373/373 
f 374/374/374 371/371/371 373/373/373 
f 374/374/374 375/375/375 371/371/371 
f 372/372/372 371/371/371 376/376/376 
f 372/372/372 376/376/376 377/377/377 
f 372/372/372 377/377/377 378/378/378 
f 379/379/379 380/380/380 381/381/381 
f 380/380/380 382/382/382 381/381/381 
f 383/383/383 384/384/384 385/385/385 
f 384/384/384 383/383/383 386/386/386 
f 387/387/387 388/388/388 389/389/389 
f 388/388/388 387/387/387 390/390/390 
f 391/391/391 392/392/392 393/393/393 
f 392/392/392 391/391/391 394/394/394 
f 396/396/396 397/397/397 398/398/398 
f 397/397/397 396/396/396 399/399/399 
f 400/400/400 399/399/399 401/401/401 
f 401/401/401 402/402/402 400/400/400 
f 402/402/402 403/403/403 400/400/400 
f 404/404/404 403/403/403 402/402/402 
f 405/405/405 406/406/406 407/407/407 
f 407/407/407 406/406/406 408/408/408 
f 405/405/405 409/409/409 410/410/410 
f 409/409/409 405/405/405 411/411/411 
f 412/412/412 409/409/409 411/411/411 
f 409/409/409 412/412/412 413/413/413 
f 414/414/414 415/415/415 416/416/416 
f 415/415/415 414/414/414 417/417/417 
f 418/418/418 419/419/419 415/415/415 
f 418/418/418 415/415/415 420/420/420 
f 415/415/415 417/417/417 420/420/420 
f 420/420/420 417/417/417 421/421/421 
f 420/420/420 421/421/421 422/422/422 
f 421/421/421 417/417/417 423/423/423 
f 417/417/417 424/424/424 423/423/423 
f 424/424/424 417/417/417 425/425/425 
f 423/423/423 424/424/424 426/426/426 
f 423/423/423 426/426/426 427/427/427 
f 426/426/426 424/424/424 428/428/428 
f 426/426/426 428/428/428 429/429/429 
f 435/435/435 436/436/436 437/437/437 
f 436/436/436 435/435/435 438/438/438 
f 439/439/439 436/436/436 438/438/438 
f 438/438/438 440/440/440 439/439/439 
f 439/439/439 440/440/440 441/441/441 
f 439/439/439 441/441/441 442/442/442 
f 445/445/445 446/446/446 447/447/447 
f 448/448/448 447/447/447 446/446/446 
f 449/449/449 447/447/447 448/448/448 
f 447/447/447 450/450/450 445/445/445 
f 450/450/450 451/451/451 445/445/445 
f 451/451/451 450/450/450 452/452/452 
f 453/453/453 454/454/454 455/455/455 
f 456/456/456 453/453/453 455/455/455 
f 456/456/456 457/457/457 453/453/453 
f 454/454/454 453/453/453 458/458/458 
f 454/454/454 458/458/458 459/459/459 
f 454/454/454 459/459/459 460/460/460 

g Needohpurple1

v -7.4409 7.27822 -11.0128 
v -8.08967 7.27822 -10.7241 
v -1.78452 7.27822 -10.7241 
v -1.78452 0.382362 -10.7241 
v -7.2587 2.38419e-07 -10.0285 
v -8.08967 0.382364 -10.7241 
v -8.38009 1.30546 -11.0362 
v -8.38009 6.35513 -11.0362 
v -7.51649 6.35513 -11.4206 
v -8.08967 7.27822 -10.7241 
v -7.4409 7.27822 -11.0128 
v -7.51649 1.30546 -11.4206 
v -8.08967 0.382364 -10.7241 
v -7.4409 0.382362 -11.0128 
v -1.78452 7.27822 -10.7241 
v -2.35783 6.35513 -11.4206 
v -2.4333 7.27822 -11.0128 
v -1.49423 6.35513 -11.0362 
v -2.35783 1.30546 -11.4206 
v -1.49423 1.30546 -11.0362 
v -1.78452 0.382362 -10.7241 
v -2.4333 0.382362 -11.0128 
v -8.35834 7.27822 -10.0269 
v -2.35783 6.35513 -11.4206 
v -7.51649 1.30546 -11.4206 
v -7.51649 6.35513 -11.4206 
v -7.4409 7.27822 -11.0128 
v -2.4333 7.27822 -11.0128 
v -2.35783 1.30546 -11.4206 
v -2.4333 0.382362 -11.0128 
v -7.4409 0.382362 -11.0128 
v -7.4409 7.27822 -11.0128 
v -7.38867 7.66059 -9.97074 
v -7.2587 7.66059 -10.0285 
v -8.08967 7.27822 -10.7241 
v -2.48566 7.66059 -9.97074 
v -2.4333 7.27822 -11.0128 
v -2.61549 7.66059 -10.0285 
v -1.78452 7.27822 -10.7241 
v -7.38867 7.66058 -4.70161 
v -7.4409 7.27822 -3.65938 
v -7.2587 7.66058 -4.64375 
v -8.08967 7.27822 -3.94811 
v -2.48566 7.66058 -4.70161 
v -2.61549 7.66058 -4.64375 
v -2.4333 7.27822 -3.65938 
v -1.78452 7.27822 -3.94811 
v -8.35834 7.27822 -10.0269 
v -7.38867 7.66059 -9.97074 
v -8.35834 7.27822 -10.0269 
v -7.44237 7.66059 -9.83106 
v -8.08967 7.27822 -10.7241 
v -8.35834 7.27822 -10.0269 
v -7.44237 7.66058 -4.84114 
v -8.35834 7.27822 -4.64533 
v -8.35834 7.27822 -4.64533 
v -7.38867 7.66058 -4.70161 
v -8.08967 7.27822 -3.94811 
v -2.43181 7.66059 -9.83106 
v -1.51585 7.27822 -4.64533 
v -1.51585 7.27822 -10.0269 
v -2.43181 7.66058 -4.84114 
v -2.48566 7.66059 -9.97074 
v -1.78452 7.27822 -10.7241 
v -2.48566 7.66058 -4.70161 
v -1.51585 7.27822 -4.64533 
v -1.78452 7.27822 -3.94811 
v -8.38009 6.35513 -3.63601 
v -7.2587 7.66059 -10.0285 
v -7.44237 7.66059 -9.83106 
v -7.44237 7.66058 -4.84114 
v -7.38867 7.66059 -9.97074 
v -2.4333 7.27822 -11.0128 
v -7.4409 7.27822 -11.0128 
v -2.61549 7.66059 -10.0285 
v -2.43181 7.66059 -9.83106 
v -2.48566 7.66059 -9.97074 
v -2.43181 7.66058 -4.84114 
v -7.2587 7.66058 -4.64375 
v -7.38867 7.66058 -4.70161 
v -2.61549 7.66058 -4.64375 
v -2.48566 7.66058 -4.70161 
v -7.4409 7.27822 -3.65938 
v -2.4333 7.27822 -3.65938 
v -1.78452 7.27822 -10.7241 
v -1.78452 0.382362 -10.7241 
v -1.78452 7.27822 -3.94811 
v -1.78452 0.382361 -3.94811 
v -1.49423 1.30546 -11.0362 
v -1.13641 6.35513 -10.108 
v -1.49423 1.30546 -11.0362 
v -1.49423 6.35513 -11.0362 
v -1.78452 7.27822 -10.7241 
v -1.51585 7.27822 -10.0269 
v -1.13641 1.30546 -10.108 
v -1.78452 0.382362 -10.7241 
v -1.51585 0.382361 -10.0269 
v -1.51585 7.27822 -4.64533 
v -1.51585 0.382361 -4.64533 
v -1.78452 7.27822 -3.94811 
v -1.13641 6.35513 -4.56424 
v -1.51585 7.27822 -4.64533 
v -1.49423 6.35513 -3.63601 
v -1.13641 1.30546 -4.56424 
v -1.49423 1.30546 -3.63601 
v -1.78452 0.382361 -3.94811 
v -1.51585 0.382361 -4.64533 
v -2.35783 1.30546 -3.25161 
v -1.13641 6.35513 -4.56424 
v -1.13641 1.30546 -10.108 
v -1.13641 6.35513 -10.108 
v -1.51585 7.27822 -10.0269 
v -1.51585 7.27822 -4.64533 
v -1.13641 1.30546 -4.56424 
v -1.51585 0.382361 -4.64533 
v -1.51585 0.382361 -10.0269 
v -7.4409 7.27822 -3.65938 
v -8.08967 7.27822 -3.94811 
v -1.78452 7.27822 -3.94811 
v -1.78452 0.382361 -3.94811 
v -7.4409 0.382361 -3.65938 
v -8.08967 0.382362 -3.94811 
v -8.38009 1.30546 -3.63601 
v -8.38009 6.35513 -3.63601 
v -1.49423 1.30546 -3.63601 
v -1.49423 6.35513 -3.63601 
v -2.35783 6.35513 -3.25161 
v -1.78452 7.27822 -3.94811 
v -2.4333 7.27822 -3.65938 
v -2.35783 1.30546 -3.25161 
v -1.78452 0.382361 -3.94811 
v -2.4333 0.382361 -3.65938 
v -8.08967 7.27822 -3.94811 
v -7.51649 6.35513 -3.25161 
v -7.4409 7.27822 -3.65938 
v -8.38009 6.35513 -3.63601 
v -7.51649 1.30546 -3.25161 
v -8.38009 1.30546 -3.63601 
v -8.08967 0.382362 -3.94811 
v -7.4409 0.382361 -3.65938 
v -7.51649 6.35513 -3.25161 
v -2.35783 1.30546 -3.25161 
v -2.35783 6.35513 -3.25161 
v -2.4333 7.27822 -3.65938 
v -7.4409 7.27822 -3.65938 
v -7.51649 1.30546 -3.25161 
v -7.4409 0.382361 -3.65938 
v -2.4333 0.382361 -3.65938 
v -1.78452 0.382362 -10.7241 
v -2.48566 2.38419e-07 -9.97074 
v -2.4333 0.382362 -11.0128 
v -2.61549 2.38419e-07 -10.0285 
v -7.38867 2.38419e-07 -9.97074 
v -7.4409 0.382362 -11.0128 
v -7.2587 2.38419e-07 -10.0285 
v -8.08967 0.382364 -10.7241 
v -2.48566 2.38419e-07 -4.70161 
v -2.4333 0.382361 -3.65938 
v -2.61549 2.38419e-07 -4.64375 
v -1.78452 0.382361 -3.94811 
v -7.4409 0.382361 -3.65938 
v -7.38867 2.38419e-07 -4.70161 
v -7.2587 2.38419e-07 -4.64375 
v -8.08967 0.382362 -3.94811 
v -7.51649 1.30546 -11.4206 
v -1.51585 0.382361 -10.0269 
v -2.48566 2.38419e-07 -9.97074 
v -1.78452 0.382362 -10.7241 
v -2.43181 2.38419e-07 -9.83106 
v -2.43181 2.38419e-07 -4.84114 
v -1.51585 0.382361 -10.0269 
v -1.51585 0.382361 -4.64533 
v -2.48566 2.38419e-07 -4.70161 
v -1.78452 0.382361 -3.94811 
v -7.44237 2.38419e-07 -9.83106 
v -8.35834 0.382362 -10.0269 
v -7.38867 2.38419e-07 -9.97074 
v -8.08967 0.382364 -10.7241 
v -8.35834 0.382362 -4.64533 
v -8.35834 0.382362 -10.0269 
v -7.44237 2.38419e-07 -4.84114 
v -7.38867 2.38419e-07 -4.70161 
v -8.08967 0.382362 -3.94811 
v -2.43181 2.38419e-07 -9.83106 
v -2.61549 2.38419e-07 -10.0285 
v -2.48566 2.38419e-07 -9.97074 
v -2.43181 2.38419e-07 -4.84114 
v -7.4409 0.382362 -11.0128 
v -2.4333 0.382362 -11.0128 
v -7.2587 2.38419e-07 -10.0285 
v -7.44237 2.38419e-07 -9.83106 
v -7.38867 2.38419e-07 -9.97074 
v -7.44237 2.38419e-07 -4.84114 
v -2.61549 2.38419e-07 -4.64375 
v -2.48566 2.38419e-07 -4.70161 
v -7.2587 2.38419e-07 -4.64375 
v -7.38867 2.38419e-07 -4.70161 
v -2.4333 0.382361 -3.65938 
v -7.4409 0.382361 -3.65938 
v -8.08967 7.27822 -10.7241 
v -8.08967 0.382364 -10.7241 
v -8.08967 7.27822 -3.94811 
v -8.08967 0.382362 -3.94811 
v -8.38009 1.30546 -11.0362 
v -8.08967 7.27822 -10.7241 
v -8.73778 6.35513 -10.108 
v -8.35834 7.27822 -10.0269 
v -8.38009 6.35513 -11.0362 
v -8.73778 1.30546 -10.108 
v -8.38009 1.30546 -11.0362 
v -8.08967 0.382364 -10.7241 
v -8.35834 0.382362 -10.0269 
v -8.35834 7.27822 -4.64533 
v -8.35834 0.382362 -4.64533 
v -8.38009 1.30546 -3.63601 
v -8.38009 6.35513 -3.63601 
v -8.73778 6.35513 -4.56424 
v -8.08967 7.27822 -3.94811 
v -8.35834 7.27822 -4.64533 
v -8.73778 1.30546 -4.56424 
v -8.08967 0.382362 -3.94811 
v -8.35834 0.382362 -4.64533 
v -8.73778 6.35513 -10.108 
v -8.73778 1.30546 -4.56424 
v -8.73778 6.35513 -4.56424 
v -8.35834 7.27822 -4.64533 
v -8.35834 7.27822 -10.0269 
v -8.73778 1.30546 -10.108 
v -8.35834 0.382362 -10.0269 
v -8.35834 0.382362 -4.64533 

vn -0.149606 0.708661 -0.685039 
vn -0.527559 0.692913 -0.496063 
vn 0.527559 0.692913 -0.496063 
vn 0.527559 -0.692913 -0.496063 
vn -0.0393701 -0.976378 -0.19685 
vn -0.527559 -0.692913 -0.496063 
vn -0.716535 -0.204724 -0.669291 
vn -0.716535 0.204724 -0.669291 
vn -0.204724 0.212598 -0.96063 
vn -0.527559 0.692913 -0.496063 
vn -0.149606 0.708661 -0.685039 
vn -0.204724 -0.212598 -0.96063 
vn -0.527559 -0.692913 -0.496063 
vn -0.149606 -0.708661 -0.685039 
vn 0.527559 0.692913 -0.496063 
vn 0.204724 0.212598 -0.96063 
vn 0.149606 0.708661 -0.685039 
vn 0.716535 0.204724 -0.669291 
vn 0.204724 -0.212598 -0.96063 
vn 0.716535 -0.204724 -0.669291 
vn 0.527559 -0.692913 -0.496063 
vn 0.149606 -0.708661 -0.685039 
vn -0.716535 0.685039 -0.133858 
vn 0.204724 0.212598 -0.96063 
vn -0.204724 -0.212598 -0.96063 
vn -0.204724 0.212598 -0.96063 
vn -0.149606 0.708661 -0.685039 
vn 0.149606 0.708661 -0.685039 
vn 0.204724 -0.212598 -0.96063 
vn 0.149606 -0.708661 -0.685039 
vn -0.149606 -0.708661 -0.685039 
vn -0.149606 0.708661 -0.685039 
vn -0.15748 0.976378 -0.149606 
vn -0.0393701 0.976378 -0.19685 
vn -0.527559 0.692913 -0.496063 
vn 0.15748 0.976378 -0.149606 
vn 0.149606 0.708661 -0.685039 
vn 0.0393701 0.976378 -0.19685 
vn 0.527559 0.692913 -0.496063 
vn -0.15748 0.976378 0.149606 
vn -0.149606 0.708661 0.685039 
vn -0.0393701 0.976378 0.19685 
vn -0.527559 0.692913 0.496063 
vn 0.15748 0.976378 0.149606 
vn 0.0393701 0.976378 0.19685 
vn 0.149606 0.708661 0.685039 
vn 0.527559 0.692913 0.496063 
vn -0.716535 0.685039 -0.133858 
vn -0.15748 0.976378 -0.149606 
vn -0.716535 0.685039 -0.133858 
vn -0.212598 0.976378 -0.0393701 
vn -0.527559 0.692913 -0.496063 
vn -0.716535 0.685039 -0.133858 
vn -0.212598 0.976378 0.0393701 
vn -0.716535 0.685039 0.133858 
vn -0.716535 0.685039 0.133858 
vn -0.15748 0.976378 0.149606 
vn -0.527559 0.692913 0.496063 
vn 0.212598 0.976378 -0.0393701 
vn 0.716535 0.685039 0.133858 
vn 0.716535 0.685039 -0.133858 
vn 0.212598 0.976378 0.0393701 
vn 0.15748 0.976378 -0.149606 
vn 0.527559 0.692913 -0.496063 
vn 0.15748 0.976378 0.149606 
vn 0.716535 0.685039 0.133858 
vn 0.527559 0.692913 0.496063 
vn -0.716535 0.204724 0.669291 
vn -0.0393701 0.976378 -0.19685 
vn -0.212598 0.976378 -0.0393701 
vn -0.212598 0.976378 0.0393701 
vn -0.15748 0.976378 -0.149606 
vn 0.149606 0.708661 -0.685039 
vn -0.149606 0.708661 -0.685039 
vn 0.0393701 0.976378 -0.19685 
vn 0.212598 0.976378 -0.0393701 
vn 0.15748 0.976378 -0.149606 
vn 0.212598 0.976378 0.0393701 
vn -0.0393701 0.976378 0.19685 
vn -0.15748 0.976378 0.149606 
vn 0.0393701 0.976378 0.19685 
vn 0.15748 0.976378 0.149606 
vn -0.149606 0.708661 0.685039 
vn 0.149606 0.708661 0.685039 
vn 0.527559 0.692913 -0.496063 
vn 0.527559 -0.692913 -0.496063 
vn 0.527559 0.692913 0.496063 
vn 0.527559 -0.692913 0.488189 
vn 0.716535 -0.204724 -0.669291 
vn 0.96063 0.19685 -0.173228 
vn 0.716535 -0.204724 -0.669291 
vn 0.716535 0.204724 -0.669291 
vn 0.527559 0.692913 -0.496063 
vn 0.716535 0.685039 -0.133858 
vn 0.96063 -0.19685 -0.173228 
vn 0.527559 -0.692913 -0.496063 
vn 0.716535 -0.685039 -0.133858 
vn 0.716535 0.685039 0.133858 
vn 0.716535 -0.685039 0.133858 
vn 0.527559 0.692913 0.496063 
vn 0.968504 0.19685 0.173228 
vn 0.716535 0.685039 0.133858 
vn 0.716535 0.204724 0.669291 
vn 0.968504 -0.19685 0.173228 
vn 0.716535 -0.204724 0.669291 
vn 0.527559 -0.692913 0.488189 
vn 0.716535 -0.685039 0.133858 
vn 0.204724 -0.212598 0.96063 
vn 0.968504 0.19685 0.173228 
vn 0.96063 -0.19685 -0.173228 
vn 0.96063 0.19685 -0.173228 
vn 0.716535 0.685039 -0.133858 
vn 0.716535 0.685039 0.133858 
vn 0.968504 -0.19685 0.173228 
vn 0.716535 -0.685039 0.133858 
vn 0.716535 -0.685039 -0.133858 
vn -0.149606 0.708661 0.685039 
vn -0.527559 0.692913 0.496063 
vn 0.527559 0.692913 0.496063 
vn 0.527559 -0.692913 0.488189 
vn -0.149606 -0.708661 0.685039 
vn -0.527559 -0.692913 0.496063 
vn -0.716535 -0.204724 0.669291 
vn -0.716535 0.204724 0.669291 
vn 0.716535 -0.204724 0.669291 
vn 0.716535 0.204724 0.669291 
vn 0.204724 0.212598 0.96063 
vn 0.527559 0.692913 0.496063 
vn 0.149606 0.708661 0.685039 
vn 0.204724 -0.212598 0.96063 
vn 0.527559 -0.692913 0.488189 
vn 0.149606 -0.708661 0.685039 
vn -0.527559 0.692913 0.496063 
vn -0.204724 0.212598 0.96063 
vn -0.149606 0.708661 0.685039 
vn -0.716535 0.204724 0.669291 
vn -0.204724 -0.212598 0.96063 
vn -0.716535 -0.204724 0.669291 
vn -0.527559 -0.692913 0.496063 
vn -0.149606 -0.708661 0.685039 
vn -0.204724 0.212598 0.96063 
vn 0.204724 -0.212598 0.96063 
vn 0.204724 0.212598 0.96063 
vn 0.149606 0.708661 0.685039 
vn -0.149606 0.708661 0.685039 
vn -0.204724 -0.212598 0.96063 
vn -0.149606 -0.708661 0.685039 
vn 0.149606 -0.708661 0.685039 
vn 0.527559 -0.692913 -0.496063 
vn 0.15748 -0.976378 -0.149606 
vn 0.149606 -0.708661 -0.685039 
vn 0.0393701 -0.976378 -0.19685 
vn -0.15748 -0.976378 -0.149606 
vn -0.149606 -0.708661 -0.685039 
vn -0.0393701 -0.976378 -0.19685 
vn -0.527559 -0.692913 -0.496063 
vn 0.15748 -0.976378 0.149606 
vn 0.149606 -0.708661 0.685039 
vn 0.0393701 -0.976378 0.19685 
vn 0.527559 -0.692913 0.488189 
vn -0.149606 -0.708661 0.685039 
vn -0.15748 -0.976378 0.149606 
vn -0.0393701 -0.976378 0.19685 
vn -0.527559 -0.692913 0.496063 
vn -0.204724 -0.212598 -0.96063 
vn 0.716535 -0.685039 -0.133858 
vn 0.15748 -0.976378 -0.149606 
vn 0.527559 -0.692913 -0.496063 
vn 0.212598 -0.976378 -0.0393701 
vn 0.212598 -0.976378 0.0393701 
vn 0.716535 -0.685039 -0.133858 
vn 0.716535 -0.685039 0.133858 
vn 0.15748 -0.976378 0.149606 
vn 0.527559 -0.692913 0.488189 
vn -0.212598 -0.976378 -0.0393701 
vn -0.716535 -0.685039 -0.133858 
vn -0.15748 -0.976378 -0.149606 
vn -0.527559 -0.692913 -0.496063 
vn -0.716535 -0.685039 0.133858 
vn -0.716535 -0.685039 -0.133858 
vn -0.212598 -0.976378 0.0393701 
vn -0.15748 -0.976378 0.149606 
vn -0.527559 -0.692913 0.496063 
vn 0.212598 -0.976378 -0.0393701 
vn 0.0393701 -0.976378 -0.19685 
vn 0.15748 -0.976378 -0.149606 
vn 0.212598 -0.976378 0.0393701 
vn -0.149606 -0.708661 -0.685039 
vn 0.149606 -0.708661 -0.685039 
vn -0.0393701 -0.976378 -0.19685 
vn -0.212598 -0.976378 -0.0393701 
vn -0.15748 -0.976378 -0.149606 
vn -0.212598 -0.976378 0.0393701 
vn 0.0393701 -0.976378 0.19685 
vn 0.15748 -0.976378 0.149606 
vn -0.0393701 -0.976378 0.19685 
vn -0.15748 -0.976378 0.149606 
vn 0.149606 -0.708661 0.685039 
vn -0.149606 -0.708661 0.685039 
vn -0.527559 0.692913 -0.496063 
vn -0.527559 -0.692913 -0.496063 
vn -0.527559 0.692913 0.496063 
vn -0.527559 -0.692913 0.496063 
vn -0.716535 -0.204724 -0.669291 
vn -0.527559 0.692913 -0.496063 
vn -0.96063 0.19685 -0.173228 
vn -0.716535 0.685039 -0.133858 
vn -0.716535 0.204724 -0.669291 
vn -0.96063 -0.19685 -0.173228 
vn -0.716535 -0.204724 -0.669291 
vn -0.527559 -0.692913 -0.496063 
vn -0.716535 -0.685039 -0.133858 
vn -0.716535 0.685039 0.133858 
vn -0.716535 -0.685039 0.133858 
vn -0.716535 -0.204724 0.669291 
vn -0.716535 0.204724 0.669291 
vn -0.968504 0.19685 0.173228 
vn -0.527559 0.692913 0.496063 
vn -0.716535 0.685039 0.133858 
vn -0.968504 -0.19685 0.173228 
vn -0.527559 -0.692913 0.496063 
vn -0.716535 -0.685039 0.133858 
vn -0.96063 0.19685 -0.173228 
vn -0.968504 -0.19685 0.173228 
vn -0.968504 0.19685 0.173228 
vn -0.716535 0.685039 0.133858 
vn -0.716535 0.685039 -0.133858 
vn -0.96063 -0.19685 -0.173228 
vn -0.716535 -0.685039 -0.133858 
vn -0.716535 -0.685039 0.133858 

vt 4.31297 -52.569 
vt 4.39407 -52.569 
vt 3.60593 -52.569 
vt 3.60593 -53.431 
vt 4.2902 -53.4788 
vt 4.39407 -53.431 
vt 4.43037 -53.3156 
vt 4.43037 -52.6844 
vt 4.32242 -52.6844 
vt 4.39407 -52.569 
vt 4.31297 -52.569 
vt 4.32242 -53.3156 
vt 4.39407 -53.431 
vt 4.31297 -53.431 
vt 3.60593 -52.569 
vt 3.67759 -52.6844 
vt 3.68703 -52.569 
vt 3.56964 -52.6844 
vt 3.67759 -53.3156 
vt 3.56964 -53.3156 
vt 3.60593 -53.431 
vt 3.68703 -53.431 
vt 4.42766 -52.569 
vt 3.67759 -52.6844 
vt 4.32242 -53.3156 
vt 4.32242 -52.6844 
vt 4.31297 -52.569 
vt 3.68703 -52.569 
vt 3.67759 -53.3156 
vt 3.68703 -53.431 
vt 4.31297 -53.431 
vt 3.54041 -53.313 
vt 3.67067 -53.3064 
vt 3.66346 -53.2902 
vt 3.5765 -53.3941 
vt 3.67067 -52.6936 
vt 3.54041 -52.687 
vt 3.66346 -52.7098 
vt 3.5765 -52.6059 
vt 4.32931 -53.3064 
vt 4.45959 -53.313 
vt 4.33654 -53.2902 
vt 4.4235 -53.3941 
vt 4.32931 -52.6936 
vt 4.33654 -52.7098 
vt 4.45959 -52.687 
vt 4.4235 -52.6059 
vt 3.66365 -53.4277 
vt 3.67067 -53.3064 
vt 3.66365 -53.4277 
vt 3.68813 -53.3132 
vt 3.5765 -53.3941 
vt 3.66365 -53.4277 
vt 4.31187 -53.3132 
vt 4.33635 -53.4277 
vt 4.33635 -53.4277 
vt 4.32931 -53.3064 
vt 4.4235 -53.3941 
vt 3.68813 -52.6868 
vt 4.33635 -52.5723 
vt 3.66365 -52.5723 
vt 4.31187 -52.6868 
vt 3.67067 -52.6936 
vt 3.5765 -52.6059 
vt 4.32931 -52.6936 
vt 4.33635 -52.5723 
vt 4.4235 -52.6059 
vt 4.46251 -53.4304 
vt 3.66346 -53.2902 
vt 3.68813 -53.3132 
vt 4.31187 -53.3132 
vt 3.67067 -53.3064 
vt 3.54041 -52.687 
vt 3.54041 -53.313 
vt 3.66346 -52.7098 
vt 3.68813 -52.6868 
vt 3.67067 -52.6936 
vt 4.31187 -52.6868 
vt 4.33654 -53.2902 
vt 4.32931 -53.3064 
vt 4.33654 -52.7098 
vt 4.32931 -52.6936 
vt 4.45959 -53.313 
vt 4.45959 -52.687 
vt 4.4235 -52.569 
vt 4.4235 -53.431 
vt 3.5765 -52.569 
vt 3.5765 -53.431 
vt 4.46251 -53.3156 
vt 4.34648 -52.6844 
vt 4.46251 -53.3156 
vt 4.46251 -52.6844 
vt 4.4235 -52.569 
vt 4.33635 -52.569 
vt 4.34648 -53.3156 
vt 4.4235 -53.431 
vt 4.33635 -53.431 
vt 3.66365 -52.569 
vt 3.66365 -53.431 
vt 3.5765 -52.569 
vt 3.65352 -52.6844 
vt 3.66365 -52.569 
vt 3.53749 -52.6844 
vt 3.65352 -53.3156 
vt 3.53749 -53.3156 
vt 3.5765 -53.431 
vt 3.66365 -53.431 
vt 3.48944 -53.3156 
vt 3.65352 -52.6844 
vt 4.34648 -53.3156 
vt 4.34648 -52.6844 
vt 4.33635 -52.569 
vt 3.66365 -52.569 
vt 3.65352 -53.3156 
vt 3.66365 -53.431 
vt 4.33635 -53.431 
vt 3.68703 -52.569 
vt 3.60593 -52.569 
vt 4.39407 -52.569 
vt 4.39407 -53.431 
vt 3.68703 -53.431 
vt 3.60593 -53.431 
vt 3.56963 -53.3156 
vt 3.56963 -52.6844 
vt 4.43036 -53.3156 
vt 4.43036 -52.6844 
vt 4.32241 -52.6844 
vt 4.39407 -52.569 
vt 4.31297 -52.569 
vt 4.32241 -53.3156 
vt 4.39407 -53.431 
vt 4.31297 -53.431 
vt 3.60593 -52.569 
vt 3.67758 -52.6844 
vt 3.68703 -52.569 
vt 3.56963 -52.6844 
vt 3.67758 -53.3156 
vt 3.56963 -53.3156 
vt 3.60593 -53.431 
vt 3.68703 -53.431 
vt 3.67758 -52.6844 
vt 4.32241 -53.3156 
vt 4.32241 -52.6844 
vt 4.31297 -52.569 
vt 3.68703 -52.569 
vt 3.67758 -53.3156 
vt 3.68703 -53.431 
vt 4.31297 -53.431 
vt 4.4235 -52.6059 
vt 4.32933 -52.6936 
vt 4.45959 -52.687 
vt 4.33654 -52.7098 
vt 4.32933 -53.3064 
vt 4.45959 -53.313 
vt 4.33654 -53.2902 
vt 4.4235 -53.3941 
vt 3.67069 -52.6936 
vt 3.54041 -52.687 
vt 3.66346 -52.7098 
vt 3.5765 -52.6059 
vt 3.54041 -53.313 
vt 3.67069 -53.3064 
vt 3.66346 -53.2902 
vt 3.5765 -53.3941 
vt 4.51056 -53.3224 
vt 4.33635 -52.5723 
vt 4.32933 -52.6936 
vt 4.4235 -52.6059 
vt 4.31187 -52.6868 
vt 3.68813 -52.6868 
vt 4.33635 -52.5723 
vt 3.66365 -52.5723 
vt 3.67069 -52.6936 
vt 3.5765 -52.6059 
vt 4.31187 -53.3132 
vt 4.33635 -53.4277 
vt 4.32933 -53.3064 
vt 4.4235 -53.3941 
vt 3.66365 -53.4277 
vt 4.33635 -53.4277 
vt 3.68813 -53.3132 
vt 3.67069 -53.3064 
vt 3.5765 -53.3941 
vt 4.31187 -52.6868 
vt 4.33654 -52.7098 
vt 4.32933 -52.6936 
vt 3.68813 -52.6868 
vt 4.45959 -53.313 
vt 4.45959 -52.687 
vt 4.33654 -53.2902 
vt 4.31187 -53.3132 
vt 4.32933 -53.3064 
vt 3.68813 -53.3132 
vt 3.66346 -52.7098 
vt 3.67069 -52.6936 
vt 3.66346 -53.2902 
vt 3.67069 -53.3064 
vt 3.54041 -52.687 
vt 3.54041 -53.313 
vt 3.5765 -52.569 
vt 3.5765 -53.431 
vt 4.4235 -52.569 
vt 4.4235 -53.431 
vt 3.53749 -53.3156 
vt 3.5765 -52.569 
vt 3.65352 -52.6844 
vt 3.66365 -52.569 
vt 3.53749 -52.6844 
vt 3.65352 -53.3156 
vt 3.53749 -53.3156 
vt 3.5765 -53.431 
vt 3.66365 -53.431 
vt 4.33635 -52.569 
vt 4.33635 -53.431 
vt 4.46251 -53.3156 
vt 4.46251 -52.6844 
vt 4.34648 -52.6844 
vt 4.4235 -52.569 
vt 4.33635 -52.569 
vt 4.34648 -53.3156 
vt 4.4235 -53.431 
vt 4.33635 -53.431 
vt 3.65352 -52.6844 
vt 4.34648 -53.3156 
vt 4.34648 -52.6844 
vt 4.33635 -52.569 
vt 3.66365 -52.569 
vt 3.65352 -53.3156 
vt 3.66365 -53.431 
vt 4.33635 -53.431 

usemtl Needohpurple1Mtl

f 467/467/467 468/468/468 469/469/469 
f 470/470/470 469/469/469 468/468/468 
f 471/471/471 469/469/469 470/470/470 
f 469/469/469 472/472/472 467/467/467 
f 472/472/472 473/473/473 467/467/467 
f 473/473/473 472/472/472 474/474/474 
f 475/475/475 476/476/476 477/477/477 
f 476/476/476 475/475/475 478/478/478 
f 478/478/478 479/479/479 476/476/476 
f 479/479/479 478/478/478 480/480/480 
f 479/479/479 480/480/480 481/481/481 
f 479/479/479 481/481/481 482/482/482 
f 484/484/484 485/485/485 486/486/486 
f 487/487/487 484/484/484 486/486/486 
f 487/487/487 488/488/488 484/484/484 
f 485/485/485 484/484/484 489/489/489 
f 485/485/485 489/489/489 490/490/490 
f 485/485/485 490/490/490 491/491/491 
f 492/492/492 493/493/493 494/494/494 
f 493/493/493 492/492/492 495/495/495 
f 496/496/496 497/497/497 498/498/498 
f 497/497/497 496/496/496 499/499/499 
f 500/500/500 501/501/501 502/502/502 
f 501/501/501 500/500/500 503/503/503 
f 504/504/504 505/505/505 506/506/506 
f 507/507/507 504/504/504 506/506/506 
f 509/509/509 510/510/510 511/511/511 
f 510/510/510 509/509/509 512/512/512 
f 513/513/513 514/514/514 511/511/511 
f 514/514/514 513/513/513 515/515/515 
f 514/514/514 516/516/516 517/517/517 
f 517/517/517 516/516/516 518/518/518 
f 519/519/519 520/520/520 521/521/521 
f 520/520/520 519/519/519 522/522/522 
f 521/521/521 523/523/523 519/519/519 
f 524/524/524 523/523/523 521/521/521 
f 525/525/525 526/526/526 522/522/522 
f 526/526/526 525/525/525 527/527/527 
f 529/529/529 530/530/530 531/531/531 
f 530/530/530 529/529/529 532/532/532 
f 529/529/529 533/533/533 534/534/534 
f 529/529/529 535/535/535 533/533/533 
f 529/529/529 531/531/531 535/535/535 
f 535/535/535 531/531/531 536/536/536 
f 535/535/535 536/536/536 537/537/537 
f 536/536/536 531/531/531 538/538/538 
f 531/531/531 539/539/539 538/538/538 
f 539/539/539 531/531/531 540/540/540 
f 538/538/538 539/539/539 541/541/541 
f 538/538/538 541/541/541 542/542/542 
f 543/543/543 541/541/541 539/539/539 
f 543/543/543 544/544/544 541/541/541 
f 550/550/550 551/551/551 552/552/552 
f 553/553/553 550/550/550 552/552/552 
f 554/554/554 550/550/550 553/553/553 
f 551/551/551 550/550/550 555/555/555 
f 555/555/555 556/556/556 551/551/551 
f 556/556/556 555/555/555 557/557/557 
f 560/560/560 561/561/561 562/562/562 
f 561/561/561 560/560/560 563/563/563 
f 564/564/564 561/561/561 563/563/563 
f 563/563/563 565/565/565 564/564/564 
f 564/564/564 565/565/565 566/566/566 
f 564/564/564 566/566/566 567/567/567 
f 569/569/569 570/570/570 571/571/571 
f 572/572/572 569/569/569 571/571/571 
f 572/572/572 573/573/573 569/569/569 
f 570/570/570 569/569/569 574/574/574 
f 570/570/570 574/574/574 575/575/575 
f 570/570/570 575/575/575 576/576/576 
f 585/585/585 586/586/586 587/587/587 
f 588/588/588 587/587/587 586/586/586 
f 589/589/589 587/587/587 588/588/588 
f 587/587/587 590/590/590 585/585/585 
f 590/590/590 591/591/591 585/585/585 
f 591/591/591 590/590/590 592/592/592 
f 593/593/593 594/594/594 595/595/595 
f 594/594/594 593/593/593 596/596/596 
f 597/597/597 594/594/594 596/596/596 
f 596/596/596 598/598/598 597/597/597 
f 597/597/597 598/598/598 599/599/599 
f 597/597/597 599/599/599 600/600/600 
f 601/601/601 602/602/602 603/603/603 
f 604/604/604 601/601/601 603/603/603 
f 604/604/604 605/605/605 601/601/601 
f 602/602/602 601/601/601 606/606/606 
f 602/602/602 606/606/606 607/607/607 
f 602/602/602 607/607/607 608/608/608 
f 609/609/609 610/610/610 611/611/611 
f 610/610/610 612/612/612 611/611/611 
f 613/613/613 614/614/614 615/615/615 
f 614/614/614 613/613/613 616/616/616 
f 617/617/617 618/618/618 619/619/619 
f 618/618/618 617/617/617 620/620/620 
f 621/621/621 622/622/622 623/623/623 
f 622/622/622 621/621/621 624/624/624 
f 626/626/626 627/627/627 628/628/628 
f 627/627/627 626/626/626 629/629/629 
f 630/630/630 629/629/629 631/631/631 
f 631/631/631 632/632/632 630/630/630 
f 632/632/632 633/633/633 630/630/630 
f 634/634/634 633/633/633 632/632/632 
f 635/635/635 636/636/636 637/637/637 
f 637/637/637 636/636/636 638/638/638 
f 635/635/635 639/639/639 640/640/640 
f 639/639/639 635/635/635 641/641/641 
f 642/642/642 639/639/639 641/641/641 
f 639/639/639 642/642/642 643/643/643 
f 644/644/644 645/645/645 646/646/646 
f 645/645/645 644/644/644 647/647/647 
f 648/648/648 649/649/649 645/645/645 
f 648/648/648 645/645/645 650/650/650 
f 645/645/645 647/647/647 650/650/650 
f 650/650/650 647/647/647 651/651/651 
f 650/650/650 651/651/651 652/652/652 
f 651/651/651 647/647/647 653/653/653 
f 647/647/647 654/654/654 653/653/653 
f 654/654/654 647/647/647 655/655/655 
f 653/653/653 654/654/654 656/656/656 
f 653/653/653 656/656/656 657/657/657 
f 656/656/656 654/654/654 658/658/658 
f 656/656/656 658/658/658 659/659/659 
f 665/665/665 666/666/666 667/667/667 
f 666/666/666 665/665/665 668/668/668 
f 669/669/669 666/666/666 668/668/668 
f 668/668/668 670/670/670 669/669/669 
f 669/669/669 670/670/670 671/671/671 
f 669/669/669 671/671/671 672/672/672 
f 675/675/675 676/676/676 677/677/677 
f 678/678/678 677/677/677 676/676/676 
f 679/679/679 677/677/677 678/678/678 
f 677/677/677 680/680/680 675/675/675 
f 680/680/680 681/681/681 675/675/675 
f 681/681/681 680/680/680 682/682/682 
f 683/683/683 684/684/684 685/685/685 
f 686/686/686 683/683/683 685/685/685 
f 686/686/686 687/687/687 683/683/683 
f 684/684/684 683/683/683 688/688/688 
f 684/684/684 688/688/688 689/689/689 
f 684/684/684 689/689/689 690/690/690 

